<!-- Generated by IcoMoon.io -->
<svg version="1.1" xmlns="http://www.w3.org/2000/svg" width="32" height="32" viewBox="0 0 32 32">
<title>administrator</title>
<path fill="#ffdecc" d="M29.105 26.862l-0.019 0.019c-2.449 2.257-5.474 3.89-8.836 4.639-0.346 0.077-0.701 0.154-1.066 0.211-0.48 0.077-0.97 0.144-1.46 0.182-0.038 0-0.077 0.010-0.115 0.010-0.519 0.048-1.047 0.067-1.585 0.067h-0.029c-0.547 0-1.085-0.019-1.613-0.067-0.048 0-0.086-0.010-0.125-0.010-0.307-0.029-0.624-0.067-0.932-0.106-0.538-0.077-1.076-0.173-1.594-0.288-3.361-0.759-6.396-2.401-8.836-4.658 0.365-1.325 0.788-2.391 1.325-2.862 0.682-0.605 2.324-1.892 7.424-4.216h0.010c0.038-0.019 0.067-0.029 0.106-0.048 0.269-0.125 0.538-0.24 0.816-0.365 0.038-0.019 0.067-0.029 0.096-0.048 0.038-0.019 0.077-0.029 0.115-0.048l0.077-0.029c0.029-0.010 0.058-0.029 0.077-0.038 0.067-0.029 0.134-0.058 0.211-0.096h0.538l2.459 0.010 2.151 0.019h0.624l0.144 0.058 0.067 0.029 0.144 0.067c0.010 0 0.019 0.010 0.029 0.010 0 0 0.010 0 0.010 0.010l0.432 0.192 0.029 0.010c0.307 0.134 0.605 0.269 0.884 0.403 3.803 1.748 5.58 2.872 6.512 3.573 0.010 0 0.010 0.010 0.019 0.010 0.259 0.202 0.451 0.365 0.605 0.49 0.125 0.115 0.25 0.269 0.365 0.442 0.173 0.259 0.327 0.586 0.48 0.96v0.010c0.154 0.442 0.317 0.932 0.461 1.46z"></path>
<path fill="#333" d="M29.105 26.862l-0.019 0.019c-2.449 2.257-5.474 3.89-8.836 4.639-0.346 0.077-0.701 0.154-1.066 0.211-0.48 0.077-0.97 0.144-1.46 0.182-0.038 0-0.077 0.010-0.115 0.010-0.519 0.048-1.047 0.067-1.585 0.067h-0.029c-0.547 0-1.085-0.019-1.613-0.067-0.048 0-0.086-0.010-0.125-0.010-0.307-0.029-0.624-0.067-0.932-0.106-0.538-0.077-1.076-0.173-1.594-0.288-3.361-0.759-6.396-2.401-8.836-4.658 0.365-1.325 0.788-2.391 1.325-2.862 0.682-0.605 2.324-1.892 7.424-4.216h0.010c0.038-0.019 0.067-0.029 0.106-0.048 0.269-0.125 0.538-0.24 0.816-0.365 0.038-0.019 0.067-0.029 0.096-0.048 0.058-0.029 0.125-0.058 0.182-0.077 0.029-0.010 0.058-0.029 0.077-0.038 0.067-0.029 0.134-0.058 0.211-0.096h0.538l2.459 0.010 2.151 0.019h0.624l0.144 0.058 0.067 0.029 0.144 0.067c0.010 0 0.019 0.010 0.029 0.010 0 0 0.010 0 0.010 0.010l0.432 0.192 0.029 0.010c0.307 0.134 0.605 0.269 0.884 0.403 3.803 1.748 5.58 2.872 6.512 3.573 0.010 0 0.010 0.010 0.019 0.010 0.259 0.202 0.451 0.365 0.605 0.49 0.125 0.115 0.25 0.269 0.365 0.442 0.173 0.259 0.327 0.586 0.48 0.96v0.010c0.163 0.442 0.327 0.932 0.471 1.46z"></path>
<path fill="#e0c0a6" d="M12.931 13.599v6.982c1.681 1.988 4.437 2.065 6.118 0v-6.982c0-3.774-6.118-3.774-6.118 0z"></path>
<path fill="#ffdbba" d="M9.198 11.211c0 0 0 0 0 0 0.307 0.932 0.993 1.544 1.532 1.366s0.727-1.077 0.42-2.009c0 0 0 0 0 0v0c0 0 0 0 0 0-0.307-0.932-0.993-1.544-1.532-1.366s-0.727 1.077-0.42 2.009c0 0 0 0 0 0v0z"></path>
<path fill="#ffdbba" d="M21.234 12.584c0.539 0.178 1.225-0.434 1.532-1.366s0.119-1.831-0.42-2.009v0c-0.539-0.178-1.225 0.434-1.532 1.366s-0.119 1.831 0.42 2.009v0z"></path>
<path fill="#fff" d="M19.837 23.414l-0.643 8.327c-0.48 0.077-0.97 0.144-1.46 0.182-0.038 0-0.077 0.010-0.115 0.010-0.519 0.048-1.047 0.067-1.585 0.067h-0.029c-0.547 0-1.085-0.019-1.613-0.067-0.048 0-0.086-0.010-0.125-0.010-0.307-0.029-0.624-0.067-0.932-0.106-0.259-1.335-1.585-8.202-1.585-8.442 0-0.096 0.634-0.317 1.412-0.538 0.010 0 0.029-0.010 0.038-0.010 1.239-0.355 2.814-0.73 2.814-0.73h0.010l2.747 0.951 0.019 0.010 1.047 0.355z"></path>
<path fill="#605f5b" d="M14.247 31.914c-0.307-0.029-0.624-0.067-0.932-0.106-0.538-0.077-1.076-0.173-1.594-0.288l-2.257-4.591 2.401-1.604-2.929-1.373 2.699-4.187h0.010l1.028-0.461 0.115-0.048 0.077-0.029 0.077-0.038v1.383l0.259 2.247 0.221 1.892v0.010l0.826 7.193zM20.115 25.335l2.401 1.604-2.267 4.591c-0.346 0.077-0.701 0.154-1.066 0.211-0.48 0.077-0.97 0.144-1.46 0.182l0.836-7.136 0.010-0.038 0.202-1.69 0.173-1.441 0.096-1.018 0.019-1.393 0.067 0.029 0.144 0.067c0.010 0 0.019 0.010 0.029 0.010 0 0 0.010 0 0.010 0.010l0.432 0.192 0.029 0.010 0.874 0.384 0.010 0.010 2.391 4.043-2.929 1.373z"></path>
<path fill="#c93838" d="M14.651 23.481l0.778 1.181h1.152l0.74-1.152-1.297-1.421-1.373 1.393zM17.609 31.933c-0.519 0.048-1.047 0.067-1.585 0.067h-0.029c-0.547 0-1.085-0.019-1.613-0.067l1.037-7.27h1.152l0.010 0.038 1.028 7.232z"></path>
<path fill="#ededed" d="M13.604 19.102l-0.672-0.836-0.269 1.037 0.49 3.525 0.259 1.882v0.010l2.603-2.631-2.411-2.987z"></path>
<path fill="#d3b098" d="M16.024 11.582v10.526c1.124 0.019 2.094 0.346 2.948-0.701l0.144-2.324v-4.677c0-1.902-1.556-2.843-3.093-2.824z"></path>
<path fill="#755a48" d="M20.845 1.584c1.402 0.221 2.171 1.181 2.507 2.487 0.864 3.39-0.941 10.747-7.203 10.833-3.227 0.048-5.551-0.778-6.396-3.39s-1.191-6.819 0.643-9.172c2.315-2.968 7.174-2.997 10.449-0.759z"></path>
<path fill="#ffdbba" d="M15.995 1.056c-9.412 0-5.801 12.889-5.186 13.878 0.682 1.085 3.669 3.486 5.186 3.486s4.514-2.401 5.186-3.486c0.624-0.989 4.226-13.878-5.186-13.878z"></path>
<path fill="#efc9ac" d="M16.053 1.056h-0.029v17.364h0.029c1.517 0 4.514-2.401 5.186-3.486 0.615-0.989 4.226-13.878-5.186-13.878z"></path>
<path fill="#755a48" d="M11.443 5.109c1.671 1.018 2.977-0.499 4.485 0.154 1.517 0.653 5.609-2.487 6.502 4.408 1.431-4.994-0.74-8.567-6.204-8.807-5.83-0.25-8.192 5.061-6.579 10.027-0.106-2.699 0.557-4.456 1.796-5.782z"></path>
<path fill="#755a48" d="M11.299 4.657c-0.096 0.855 1.671 1.018 2.209 1.047 0.605 0.029 1.191-0.077 1.767-0.259 0.355-0.115 0.701-0.259 1.056-0.394 0.327-0.125 0.682-0.211 0.932-0.471 0.048-0.058 0.029-0.144-0.048-0.163-0.538-0.163-1.2 0.221-1.7 0.403-0.557 0.202-1.124 0.394-1.719 0.403-0.855 0.019-1.7-0.125-2.401-0.615-0.048-0.029-0.096 0.010-0.096 0.048z"></path>
<path fill="#c93838" d="M11.040 10.295c0.038-0.413 0.154-0.749 0.365-0.884 0.221-0.134 0.96-0.23 1.719-0.202v-0.259c-0.97-0.048-2.257 0.067-2.497 0.154-0.24 0.077-0.298 0.115-0.317 0.24-0.010 0.038-0.010 0.086-0.019 0.144-0.019 0.25 0.010 0.461 0.192 0.528 0.24 0.086 0.23 0.423 0.365 1.373 0.048 0.317 0.115 0.605 0.269 0.855 0.259 0.432 0.749 0.74 1.71 0.816 0.058 0 0.106 0.010 0.154 0.010h0.077v-0.24h-0.029c-0.691 0-1.46-0.269-1.719-0.797-0.019-0.048-0.048-0.096-0.067-0.154-0.163-0.442-0.24-1.066-0.202-1.585zM18.972 9.2l0.010-0.259c-0.058 0-0.125 0.010-0.182 0.010-0.884 0.077-1.959 0.471-2.756 0.49h-0.019c-0.375-0.010-1.719-0.394-2.68-0.471-0.067-0.010-0.144-0.010-0.211-0.019v0.259c0.797 0.038 1.633 0.221 1.911 0.643 0.163 0.25 0.163 0.624 0.067 1.018-0.182 0.73-0.701 1.527-1.191 1.777-0.23 0.115-0.528 0.173-0.855 0.182v0.24c1.325 0 1.815-0.951 1.978-1.268s0.221-0.701 0.355-0.989c0.115-0.259 0.288-0.442 0.644-0.442 0.365 0 0.528 0.192 0.634 0.451 0.096 0.25 0.144 0.567 0.25 0.855 0.010 0.038 0.029 0.067 0.038 0.106 0.144 0.317 0.557 1.258 1.844 1.277h0.106v-0.24c-0.086 0-0.182 0-0.269-0.010-0.24-0.019-0.461-0.077-0.634-0.163-0.269-0.144-0.547-0.471-0.759-0.864-0.154-0.278-0.269-0.595-0.327-0.893-0.077-0.403-0.058-0.778 0.125-1.037 0.307-0.423 1.133-0.605 1.921-0.653zM21.796 9.267c-0.029-0.077-0.106-0.115-0.288-0.182-0.24-0.086-1.546-0.202-2.526-0.144l-0.010 0.259c0.778-0.038 1.517 0.048 1.738 0.192 0.173 0.115 0.269 0.384 0.298 0.72 0.048 0.547-0.077 1.268-0.298 1.758-0.019 0.048-0.048 0.096-0.067 0.134-0.279 0.519-1.018 0.788-1.69 0.807h-0.048v0.24c0.038 0 0.067 0 0.106-0.010h0.058c0.98-0.077 1.479-0.394 1.767-0.826 0.163-0.25 0.25-0.538 0.317-0.855 0.192-0.951 0.202-1.287 0.451-1.373 0.182-0.067 0.221-0.278 0.221-0.528-0.010-0.086-0.010-0.154-0.029-0.192z"></path>
<path fill="#ededed" d="M19.117 18.516v-0.336l-0.855 1.008-2.238 2.891-0.010 0.019 0.010 0.019 0.557 0.672 1.969 2.075 0.432-3.553 0.134-2.075v-0.72z"></path>
<path fill="#000" d="M12.931 18.266l3.093 3.832 1.633-2.113 1.46-1.806v-0.086l-1.517 1.863-1.575 2.026-3.093-3.803v0.086z"></path>
<path fill="#000" d="M15.419 24.662h1.153v0.038h-1.152z"></path>
</svg>
