<!-- Generated by IcoMoon.io -->
<svg version="1.1" xmlns="http://www.w3.org/2000/svg" width="32" height="32" viewBox="0 0 32 32">
<title>all</title>
<path d="M30.222 31.111h-28.444c-0.012 0-0.025 0-0.039 0-0.876 0-1.603-0.64-1.738-1.478l-0.001-0.010v-7.264c0.102-0.968 0.828-1.741 1.764-1.913l0.013-0.002h1.778v-10.667c0.111-0.934 0.844-1.667 1.768-1.777l0.010-0.001h7.111v-5.333c0.112-0.934 0.844-1.666 1.768-1.777l0.010-0.001h7.111l7.111 7.111v12.444h1.778c0.942 0.181 1.66 0.951 1.759 1.905l0.001 0.009 0.018 6.974c-0.118 0.931-0.847 1.66-1.768 1.777l-0.010 0.001zM7.111 11.555v8.889h3.556v-8.889h-3.556zM24.889 9.778h-5.333v-5.333h-5.333v16h10.667v-10.667z"></path>
</svg>
