<!-- Generated by IcoMoon.io -->
<svg version="1.1" xmlns="http://www.w3.org/2000/svg" width="32" height="32" viewBox="0 0 32 32">
<title>applyTotal</title>
<path d="M32 11.782l-0.415-0.436h-0.178l-4.207-2.182v-6.109c0-0.008 0-0.017 0-0.026 0-1.589-1.22-2.894-2.774-3.029l-0.011-0.001h-16.83c-1.55 0.042-2.791 1.309-2.791 2.865 0 0.067 0.002 0.133 0.007 0.198v-0.009 6.254l-4.207 2.037c-0.225 0.054-0.402 0.219-0.473 0.431l-0.001 0.005c0 0.145-0.119 0.291-0.119 0.437v16.872c0.002 1.604 1.3 2.904 2.903 2.909h26.193c1.603-0.005 2.901-1.305 2.904-2.909v-17.309zM27.2 11.055l2.311 1.164-2.311 1.163v-2.327zM6.282 3.055c-0.001-0.023-0.002-0.050-0.002-0.077 0-0.768 0.562-1.405 1.297-1.522l0.009-0.001h16.711c0.006 0 0.012 0 0.019 0 0.727 0 1.316 0.589 1.316 1.316 0 0.101-0.011 0.199-0.033 0.293l0.002-0.009v11.054l-9.6 4.8h-0.296l-9.6-4.8v-11.054h0.178zM4.8 11.055v2.327l-2.311-1.163zM30.519 29.091c0 0.011 0.001 0.024 0.001 0.037 0 0.703-0.57 1.273-1.273 1.273-0.011 0-0.022 0-0.033 0h-26.309c-0.721-0.003-1.303-0.588-1.304-1.309v-15.709l13.689 6.836c0.211 0.094 0.457 0.149 0.716 0.149 0.040 0 0.080-0.001 0.119-0.004h-0.005c0.043 0.003 0.094 0.006 0.145 0.006 0.269 0 0.525-0.056 0.757-0.156l-0.012 0.005 13.689-6.836v15.709h-0.178zM20.504 12.219c0.001-0.013 0.001-0.027 0.001-0.042 0-0.379-0.307-0.686-0.686-0.686-0.009 0-0.018 0-0.027 0.001h-9.48c-0.393 0.012-0.707 0.333-0.707 0.727s0.314 0.716 0.706 0.727h9.601c0.306-0.126 0.531-0.395 0.592-0.721l0.001-0.006zM10.311 7.127h11.496c0.402 0 0.727-0.326 0.727-0.727s-0.326-0.727-0.727-0.727v0h-11.496c-0.402 0-0.727 0.326-0.727 0.727s0.326 0.727 0.727 0.727v0z"></path>
</svg>
