<!-- Generated by IcoMoon.io -->
<svg version="1.1" xmlns="http://www.w3.org/2000/svg" width="16" height="32" viewBox="0 0 16 32">
<title>arrow</title>
<path fill="#17181a" d="M0 32v-32c8.837 0 16 7.163 16 16s-7.163 16-16 16v0z"></path>
<path fill="#c4c8cc" d="M8.448 21.12c0.211-0.001 0.392-0.127 0.472-0.308l0.001-0.003c0.023-0.056 0.037-0.121 0.037-0.189 0-0.141-0.058-0.268-0.152-0.36v0l-4.346-4.266 4.346-4.266c0.095-0.088 0.154-0.213 0.154-0.352 0-0.048-0.007-0.094-0.020-0.138l0.001 0.003c-0.049-0.176-0.187-0.312-0.361-0.356l-0.003-0.001c-0.040-0.011-0.086-0.018-0.134-0.018-0.14 0-0.266 0.056-0.359 0.146v0l-4.717 4.623c-0.092 0.091-0.149 0.217-0.149 0.356s0.057 0.265 0.149 0.356v0l4.717 4.623c0.092 0.090 0.219 0.146 0.358 0.146 0.002 0 0.005 0 0.007 0v0z"></path>
</svg>
