<!-- Generated by IcoMoon.io -->
<svg version="1.1" xmlns="http://www.w3.org/2000/svg" width="16" height="32" viewBox="0 0 16 32">
<title>arrow_ri</title>
<path fill="#17181a" d="M0 16c0-8.832 7.168-16 16-16v32c-8.832 0-16-7.168-16-16z"></path>
<path fill="#c4c8cc" d="M6.4 21.12v0c0.128 0 0.256-0.064 0.384-0.128l4.608-4.608c0 0 0 0 0 0 0.192-0.192 0.192-0.512 0-0.704l-4.608-4.608c-0.128-0.128-0.32-0.192-0.512-0.128s-0.32 0.192-0.384 0.384c-0.064 0.192 0 0.384 0.128 0.512l4.224 4.288-4.224 4.288c-0.128 0.128-0.192 0.384-0.128 0.576 0.128 0 0.32 0.128 0.512 0.128v0z"></path>
</svg>
