<!-- Generated by IcoMoon.io -->
<svg version="1.1" xmlns="http://www.w3.org/2000/svg" width="32" height="32" viewBox="0 0 32 32">
<title>backManagement</title>
<path d="M32 14.4c0-0.007 0-0.014 0-0.022 0-0.927-0.694-1.692-1.591-1.803l-0.009-0.001h-2.827c-0.267-0.571-0.64-1.76-1.12-2.606l1.991-1.931c0.288-0.286 0.467-0.683 0.467-1.121s-0.179-0.835-0.467-1.121l-2.276-2.254c-0.289-0.288-0.688-0.466-1.129-0.466s-0.84 0.178-1.129 0.466v0l-1.884 1.991c-0.836-0.48-2.027-0.853-2.596-1.12v-2.812c-0.109-0.905-0.873-1.6-1.799-1.6-0.011 0-0.022 0-0.034 0h-3.198c-0.009 0-0.021 0-0.032 0-0.926 0-1.69 0.695-1.798 1.592l-0.001 0.009v2.812c-0.569 0.265-1.76 0.642-2.613 1.122l-1.92-1.979c-0.285-0.29-0.681-0.47-1.12-0.47s-0.835 0.18-1.12 0.47v0l-2.258 2.268c-0.288 0.291-0.466 0.692-0.466 1.134s0.178 0.843 0.466 1.134v0l1.991 1.877c-0.48 0.846-0.853 2.036-1.12 2.606h-2.809c-0.905 0.105-1.6 0.867-1.6 1.791 0 0.011 0 0.023 0 0.034v-0.002 3.2c0 0.010 0 0.022 0 0.034 0 0.924 0.696 1.686 1.592 1.79l0.008 0.001h2.809c0.267 0.571 0.64 1.758 1.12 2.606l-1.973 1.934c-0.296 0.282-0.48 0.68-0.48 1.12s0.184 0.838 0.479 1.119l0.001 0.001 2.258 2.254c0.292 0.29 0.694 0.47 1.138 0.47s0.846-0.18 1.138-0.47v0l1.867-1.991c0.853 0.482 2.044 0.853 2.613 1.118v2.812c0.109 0.905 0.873 1.6 1.799 1.6 0.011 0 0.022 0 0.034 0h3.198c0.009 0 0.021 0 0.032 0 0.926 0 1.69-0.695 1.798-1.592l0.001-0.009v-2.819c0.569-0.265 1.76-0.642 2.596-1.122l1.938 1.986c0.285 0.29 0.681 0.47 1.12 0.47s0.835-0.18 1.12-0.47v0l2.258-2.268c0.286-0.289 0.463-0.686 0.463-1.125 0-0.448-0.184-0.852-0.48-1.143v0l-1.991-1.876c0.48-0.846 0.853-2.034 1.12-2.606h2.827c0.906-0.112 1.6-0.877 1.6-1.804 0-0.007 0-0.014 0-0.021v0.001-3.202zM16 23.218c-3.984-0.001-7.214-3.231-7.214-7.216s3.231-7.216 7.216-7.216c3.985 0 7.215 3.23 7.216 7.214v0c-0.003 3.984-3.233 7.213-7.218 7.214v0z"></path>
</svg>
