<!-- Generated by IcoMoon.io -->
<svg version="1.1" xmlns="http://www.w3.org/2000/svg" width="32" height="32" viewBox="0 0 32 32">
<title>banji</title>
<path d="M25.882 14.429c-0.695 0.758-1.578 1.334-2.574 1.656l-0.042 0.012c-0.816 0.383-1.771 0.607-2.779 0.607-0.042 0-0.084 0-0.126-0.001h0.006c-0.059 0.002-0.129 0.003-0.198 0.003-0.988 0-1.923-0.225-2.758-0.626l0.038 0.017c-0.997-0.485-1.856-1.041-2.639-1.686l0.023 0.018c-0.683-0.742-1.267-1.589-1.723-2.512l-0.028-0.063c-0.36-0.82-0.569-1.775-0.569-2.78 0-0.088 0.002-0.176 0.005-0.264v0.013c0.040-1.097 0.244-2.133 0.587-3.104l-0.023 0.073c0.484-0.986 1.068-1.835 1.758-2.585l-0.007 0.008c0.699-0.753 1.58-1.327 2.573-1.654l0.043-0.012c0.819-0.383 1.779-0.607 2.791-0.607 0.045 0 0.089 0 0.133 0.001h-0.007c0.064-0.002 0.139-0.004 0.215-0.004 0.976 0 1.899 0.225 2.721 0.626l-0.037-0.016c0.998 0.473 1.858 1.029 2.635 1.681l-0.019-0.015c0.697 0.736 1.283 1.586 1.725 2.518l0.025 0.059c0.371 0.831 0.587 1.801 0.587 2.821 0 0.074-0.001 0.147-0.003 0.22v-0.011c-0.037 1.097-0.248 2.134-0.606 3.099l0.022-0.068c-0.467 0.99-1.054 1.84-1.755 2.579l0.004-0.004zM12.649 13.976c-0.442 0.554-1.030 0.974-1.706 1.205l-0.026 0.008c-0.644 0.281-1.393 0.447-2.181 0.454h-0.003c-0.79-0.003-1.54-0.169-2.219-0.468l0.036 0.014c-0.744-0.272-1.38-0.685-1.901-1.212v0c-0.554-0.544-0.995-1.2-1.286-1.933l-0.013-0.038c-0.274-0.673-0.433-1.455-0.433-2.273s0.159-1.6 0.448-2.314l-0.015 0.042c0.305-0.77 0.745-1.426 1.298-1.968l0.001-0.001c0.533-0.508 1.164-0.918 1.862-1.198l0.040-0.014c0.643-0.284 1.394-0.451 2.183-0.454h0.001c0.79 0.007 1.54 0.173 2.22 0.468l-0.037-0.014c0.39 0.19 0.723 0.391 1.036 0.619l-0.019-0.013c-0.558 1.147-0.885 2.496-0.885 3.921 0 0.007 0 0.013 0 0.020v-0.001c0.045 1.922 0.636 3.698 1.623 5.188l-0.023-0.036zM5.384 15.642c1.149 0.76 2.559 1.212 4.075 1.212s2.926-0.452 4.103-1.23l-0.028 0.017c-0.001 0.005-0.001 0.010-0.001 0.015 0 0.074 0.059 0.135 0.132 0.137v0c-3.867 2.429-6.4 6.671-6.4 11.504 0 0.004 0 0.007 0 0.011v-0.001c-3.915-0.151-7.266-1.21-7.266-2.878 0.020-3.807 2.176-7.106 5.329-8.763l0.055-0.026zM15.266 16.551c1.402 0.909 3.107 1.465 4.94 1.506h0.011c1.895-0.017 3.656-0.576 5.14-1.529l-0.038 0.023c3.974 2.025 6.654 6.075 6.682 10.754v0.004c0 5.001-23.266 5.001-23.266 0 0-0.026 0-0.057 0-0.088 0-4.628 2.624-8.643 6.466-10.638l0.067-0.031z"></path>
</svg>
