<!-- Generated by IcoMoon.io -->
<svg version="1.1" xmlns="http://www.w3.org/2000/svg" width="32" height="32" viewBox="0 0 32 32">
<title>browseNum</title>
<path d="M31.691 17.518c-1.199 1.713-2.544 3.2-4.053 4.502l-0.031 0.026c-3.031 2.706-7.052 4.36-11.46 4.36-0.217 0-0.432-0.004-0.647-0.012l0.031 0.001c-7.103 0-12.609-6.161-12.609-6.161l-2.486-2.536c-0.274-0.467-0.436-1.029-0.436-1.628 0-0.459 0.095-0.896 0.266-1.292l-0.008 0.021c0.554-0.658 1.135-1.25 1.758-1.796l0.019-0.016c1.47-1.754 3.169-3.251 5.064-4.467l0.088-0.053c1.868-1.296 4.078-2.247 6.463-2.704l0.108-0.017c3.551-0.544 8.524 0.181 14.029 5.073 3.906 3.805 3.906 4.162 3.906 4.162 0.193 0.368 0.306 0.803 0.306 1.265 0 0.465-0.114 0.902-0.317 1.287l0.007-0.015zM16.064 8.641c-0.044-0.001-0.097-0.002-0.149-0.002-4.103 0-7.429 3.326-7.429 7.429s3.326 7.429 7.429 7.429c4.103 0 7.429-3.326 7.429-7.429 0 0 0 0 0 0v0c0-0.012 0-0.025 0-0.039 0-4.043-3.247-7.327-7.275-7.388h-0.006zM18.905 19.148c-0.391 0.393-0.865 0.702-1.395 0.897l-0.027 0.009c-0.468 0.23-1.019 0.364-1.601 0.364s-1.133-0.134-1.623-0.374l0.022 0.010c-0.556-0.204-1.030-0.513-1.42-0.906v0c-0.385-0.398-0.688-0.879-0.88-1.413l-0.009-0.028c-0.224-0.479-0.355-1.039-0.355-1.63s0.131-1.152 0.366-1.654l-0.010 0.024c0.262-0.57 0.622-1.052 1.062-1.447l0.004-0.004c0.316-0.408 0.737-0.721 1.223-0.9l0.019-0.006c0.468-0.229 1.019-0.363 1.601-0.363s1.133 0.134 1.623 0.373l-0.022-0.010c0.556 0.205 1.030 0.514 1.421 0.906v0c0.386 0.401 0.689 0.885 0.88 1.422l0.009 0.028c0.223 0.479 0.354 1.039 0.354 1.63s-0.13 1.152-0.364 1.655l0.010-0.024c-0.201 0.561-0.504 1.042-0.89 1.442l0.001-0.001z"></path>
</svg>
