<!-- Generated by IcoMoon.io -->
<svg version="1.1" xmlns="http://www.w3.org/2000/svg" width="32" height="32" viewBox="0 0 32 32">
<title>cancelRelevance</title>
<path d="M31.391 25.276c-1.54 2.926-4.857 4.134-8.41 2.274l-5.212-2.713c-0.383-0.194-0.64-0.585-0.64-1.036 0-0.221 0.062-0.428 0.169-0.604l-0.003 0.005c0.171-0.392 0.556-0.662 1.004-0.662 0.197 0 0.382 0.052 0.541 0.143l-0.005-0.003 5.094 2.653c2.843 1.528 4.62 0.663 5.449-1.078 0.948-1.741 0.474-3.743-2.369-5.224l-4.975-2.665c-0.411-0.223-0.685-0.65-0.685-1.142 0-0.173 0.034-0.338 0.096-0.489l-0.003 0.009c0.215-0.397 0.628-0.663 1.104-0.663 0.202 0 0.393 0.048 0.562 0.133l-0.007-0.003 5.094 2.713c3.554 1.836 4.62 5.413 3.198 8.351zM18.716 13.845c-0.592 0.403-0.829 0.213-0.474-0.415l3.791-6.491c0.142-0.329 0.464-0.555 0.838-0.555 0.282 0 0.533 0.128 0.7 0.328l0.001 0.001 1.421 1.279c0.18 0.192 0.29 0.45 0.29 0.734 0 0.391-0.209 0.734-0.522 0.922l-0.005 0.003zM18.716 17.232l4.264 2.215c0.431 0.213 0.722 0.65 0.722 1.155 0 0.205-0.048 0.399-0.133 0.57l0.003-0.007c-0.208 0.427-0.639 0.717-1.137 0.717-0.189 0-0.368-0.042-0.529-0.116l0.008 0.003-4.501-2.251 0.355-0.166-0.118-0.509 0.355-0.083-0.118-0.45 0.474-0.296-0.118-0.498zM17.887 10.8l-2.132-6.124c-0.053-0.101-0.084-0.22-0.084-0.347 0-0.417 0.338-0.756 0.756-0.756 0.014 0 0.028 0 0.041 0.001h-0.002l1.54-0.012c0.59 0.004 1.067 0.483 1.067 1.073 0 0.014 0 0.028-0.001 0.042v-0.002l-0.711 6.089c0 0.616-0.237 0.628-0.474 0.036zM16.11 12.613l-4.857-3.684c-0.251-0.147-0.417-0.416-0.417-0.723 0-0.256 0.115-0.485 0.297-0.639l0.001-0.001 0.829-0.746c0.161-0.15 0.378-0.242 0.616-0.242 0.349 0 0.651 0.197 0.803 0.486l0.002 0.005 2.961 5.224c0.355 0.545 0.237 0.675-0.237 0.32zM13.386 13.24c0.001 0.020 0.002 0.043 0.002 0.067 0 0.605-0.47 1.101-1.064 1.142h-5.69c-3.198 0-4.501 1.587-4.501 3.542s1.185 3.542 4.501 3.542h5.686c0.604 0.082 1.064 0.595 1.064 1.214s-0.46 1.132-1.057 1.213l-0.006 0.001h-5.804c-4.027 0-6.515-2.677-6.515-5.97s2.606-5.97 6.515-5.97h5.804c0.599 0.043 1.069 0.539 1.069 1.145 0 0.026-0.001 0.053-0.003 0.079v-0.004zM8.174 18.251c0.001-0.721 0.582-1.307 1.302-1.315h6.516l-0.237 0.462 0.237 0.391-0.237 0.462 0.355 0.332-0.355 0.261 0.355 0.391-0.237 0.332h-6.397c-0.721-0.008-1.302-0.593-1.303-1.315v0z"></path>
</svg>
