<!-- Generated by IcoMoon.io -->
<svg version="1.1" xmlns="http://www.w3.org/2000/svg" width="32" height="32" viewBox="0 0 32 32">
<title>checkboxUnchecked</title>
<path d="M24.889 32h-17.778c-3.927 0-7.111-3.184-7.111-7.111v0-17.778c0-3.927 3.184-7.111 7.111-7.111v0h17.778c3.927 0 7.111 3.184 7.111 7.111v17.778c0 3.927-3.184 7.111-7.111 7.111v0zM30.222 7.111c0-2.946-2.388-5.333-5.333-5.333v0h-17.778c-2.946 0-5.333 2.388-5.333 5.333v0 17.778c0 2.946 2.388 5.333 5.333 5.333h17.778c2.946 0 5.333-2.388 5.333-5.333v0-17.778z"></path>
</svg>
