<!-- Generated by IcoMoon.io -->
<svg version="1.1" xmlns="http://www.w3.org/2000/svg" width="32" height="32" viewBox="0 0 32 32">
<title>checkboxChecked</title>
<path d="M24.889 32h-17.778c-3.927 0-7.111-3.184-7.111-7.111v0-17.778c0-3.927 3.184-7.111 7.111-7.111v0h17.778c3.927 0 7.111 3.184 7.111 7.111v17.778c0 3.927-3.184 7.111-7.111 7.111v0zM27.184 9.124c-0.252-0.254-0.602-0.412-0.988-0.412s-0.736 0.158-0.988 0.412v0l-12.071 12.155-4.955-4.99c-0.252-0.254-0.602-0.412-0.988-0.412s-0.736 0.158-0.988 0.412v0c-0.251 0.256-0.406 0.607-0.406 0.995s0.155 0.738 0.406 0.995v0l5.943 5.986c0.252 0.254 0.602 0.412 0.988 0.412s0.736-0.157 0.988-0.412v0l13.060-13.156c0.249-0.256 0.402-0.606 0.402-0.991s-0.154-0.737-0.404-0.993v0z"></path>
</svg>
