<!-- Generated by IcoMoon.io -->
<svg version="1.1" xmlns="http://www.w3.org/2000/svg" width="32" height="32" viewBox="0 0 32 32">
<title>delete</title>
<path d="M28.835 4.796h1.599c1.759 0 1.759 3.197 0 3.197h-1.599v20.783c0.016 0.114 0.026 0.246 0.026 0.381 0 1.57-1.273 2.843-2.843 2.843-0.134 0-0.266-0.009-0.395-0.027l0.015 0.002h-18.913c-1.049-0.003-1.995-0.439-2.669-1.14l-0.001-0.001c-0.504-0.412-0.823-1.033-0.823-1.729 0-0.115 0.009-0.229 0.026-0.339l-0.002 0.012v-20.783h-1.599c-0.799-0.104-1.409-0.78-1.409-1.599s0.61-1.495 1.401-1.598l0.008-0.001h4.796s0-3.197-0.016-3.167c0.147-0.829 0.788-1.475 1.602-1.627l0.012-0.002h15.987c0.866 0.040 1.559 0.732 1.599 1.595v3.201h3.197zM22.44 4.796v-1.599h-12.79v1.599h12.79zM6.453 7.994v19.185c0.021 0.874 0.724 1.578 1.597 1.599h15.989c0.871-0.028 1.57-0.727 1.599-1.596v-19.188h-19.185zM11.249 12.79c0.168-0.806 0.793-1.431 1.585-1.596l0.013-0.002c0.803 0.173 1.425 0.795 1.596 1.585l0.002 0.014v11.191c-0.176 0.802-0.796 1.423-1.585 1.596l-0.014 0.003c-0.806-0.168-1.431-0.793-1.596-1.585l-0.002-0.013v-11.191zM17.644 12.79c0.168-0.806 0.793-1.431 1.585-1.596l0.013-0.002c0.803 0.173 1.425 0.795 1.596 1.585l0.002 0.014v11.191c0 0.883-0.716 1.599-1.599 1.599s-1.599-0.716-1.599-1.599v0-11.191z"></path>
</svg>
