<!-- Generated by IcoMoon.io -->
<svg version="1.1" xmlns="http://www.w3.org/2000/svg" width="32" height="32" viewBox="0 0 32 32">
<title>dianzan</title>
<path d="M0.944 30.521c-0.601-4.434-0.944-9.558-0.944-14.762 0-0.815 0.008-1.628 0.025-2.439l-0.002 0.121c1.113-0.306 2.391-0.482 3.709-0.482 0.933 0 1.845 0.088 2.729 0.256l-0.091-0.014c0.561 0.2 0.661 1.342 0.661 9.011v8.771h-2.944c-0.261 0.047-0.561 0.074-0.868 0.074-0.829 0-1.612-0.198-2.305-0.548l0.029 0.013zM11.097 30.4l-1.141-0.561v-16.62l2.042-1.942c2.19-1.924 3.766-4.499 4.428-7.422l0.018-0.094c0.501-3.11 1.662-3.622 3.765-1.652 1.181 1.101 1.242 1.294 1.242 4.596 0.001 0.106 0.002 0.232 0.002 0.357 0 1.586-0.125 3.144-0.364 4.663l0.022-0.168-0.34 1.402h4.826c4.305 0 4.926 0.1 5.687 0.781 0.44 0.35 0.719 0.884 0.719 1.485 0 0.236-0.043 0.463-0.122 0.671l0.004-0.013c-1.17 5.362-2.549 9.937-4.233 14.36l0.229-0.683-0.821 1.422-7.409-0.020c-5.747 0-7.649-0.14-8.55-0.561z"></path>
</svg>
