<!-- Generated by IcoMoon.io -->
<svg version="1.1" xmlns="http://www.w3.org/2000/svg" width="32" height="32" viewBox="0 0 32 32">
<title>document</title>
<path d="M29.012 10.266h-8.69c-1.473-0.281-2.615-1.424-2.893-2.874l-0.004-0.023v-7.242l11.065 9.282c0.174 0.169 0.768 0.856 0.521 0.856zM17.425 0.128c-0.174-0.171 0-0.171 0 0zM21.77 24.75h-11.587c-0.039 0.008-0.084 0.013-0.129 0.013-0.345 0-0.626-0.273-0.638-0.615v-0.001c0-0.002 0-0.005 0-0.007 0-0.42 0.34-0.76 0.76-0.76 0.003 0 0.005 0 0.008 0h11.572c0.002 0 0.005 0 0.007 0 0.42 0 0.76 0.34 0.76 0.76 0 0.003 0 0.005 0 0.008v0c-0.010 0.341-0.288 0.614-0.631 0.614-0.043 0-0.085-0.004-0.126-0.013l0.004 0.001zM10.184 16.060c-0.039 0.008-0.084 0.013-0.129 0.013-0.345 0-0.626-0.273-0.638-0.615v-0.001c0-0.002 0-0.005 0-0.007 0-0.42 0.34-0.76 0.76-0.76 0.003 0 0.005 0 0.008 0h11.572c0.002 0 0.005 0 0.007 0 0.42 0 0.76 0.34 0.76 0.76 0 0.003 0 0.005 0 0.008v0c-0.010 0.341-0.288 0.614-0.631 0.614-0.043 0-0.085-0.004-0.126-0.013l0.004 0.001h-11.587zM21.77 20.405h-11.587c-0.039 0.008-0.084 0.013-0.129 0.013-0.345 0-0.626-0.273-0.638-0.615v-0.001c0-0.003 0-0.006 0-0.009 0-0.419 0.34-0.759 0.759-0.759 0.003 0 0.006 0 0.009 0h11.572c0.003 0 0.006 0 0.009 0 0.419 0 0.759 0.34 0.759 0.759 0 0.003 0 0.006 0 0.009v0c-0.010 0.341-0.288 0.614-0.631 0.614-0.043 0-0.085-0.004-0.126-0.013l0.004 0.001zM14.587 3.016c-0.058 0.009-7.3 0.009-7.3 0.009-0.735 0.143-1.305 0.713-1.446 1.437l-0.002 0.011v23.173c0.063 0.773 0.675 1.386 1.443 1.448h17.386c0.735-0.143 1.305-0.713 1.446-1.437l0.002-0.012v-14.483c0.043-1.159 2.897-1.438 2.897 0v15.932c0.006 0.065 0.009 0.14 0.009 0.216 0 1.485-1.204 2.69-2.69 2.69-0.076 0-0.151-0.003-0.226-0.009l0.010 0.001h-20.277c-1.614-0.034-2.91-1.351-2.91-2.97 0-0.099 0.005-0.196 0.014-0.292l-0.001 0.012v-25.716c-0.004-0.053-0.006-0.115-0.006-0.178 0-1.505 1.22-2.724 2.724-2.724 0.063 0 0.125 0.002 0.187 0.006h8.682c1.419-0.016 0.941 2.897 0.058 2.888z"></path>
</svg>
