<!-- Generated by IcoMoon.io -->
<svg version="1.1" xmlns="http://www.w3.org/2000/svg" width="32" height="32" viewBox="0 0 32 32">
<title>down</title>
<path d="M16.28 31.863c-0.062 0.084-0.161 0.137-0.272 0.137-0.001 0-0.002 0-0.002 0v0c-0.004 0-0.009 0-0.014 0-0.108 0-0.203-0.054-0.26-0.136l-0.001-0.001-8.801-10.972c-0.053-0.056-0.086-0.132-0.086-0.216s0.033-0.16 0.086-0.216v0c0.091-0.13-0.229 0.053-0.069 0.114h6.858v-20.573h4.572v20.573h6.858l-0.686-0.137 0.686 0.13c0.137-0.059-0.183-0.229-0.069-0.107 0.043 0.057 0.069 0.129 0.069 0.207 0 0.002 0 0.004 0 0.006v0c0 0.005 0 0.011 0 0.016 0 0.080-0.026 0.154-0.070 0.213l0.001-0.001-8.801 10.972z"></path>
</svg>
