<!-- Generated by IcoMoon.io -->
<svg version="1.1" xmlns="http://www.w3.org/2000/svg" width="32" height="32" viewBox="0 0 32 32">
<title>edit</title>
<path d="M18.022 11.059l-12.297 12.277 1.439 1.428 12.297-12.275zM20.981 14.002l-12.313 12.277 2.878 2.859 12.297-12.277zM16.599 9.63l-1.439-1.43-12.297 12.277 1.423 1.43zM31.423 6.431l-5.821-5.802c-0.356-0.389-0.865-0.631-1.431-0.631s-1.076 0.243-1.43 0.63l-3.535 3.532 8.683 8.661 3.534-3.533c0.349-0.373 0.564-0.876 0.564-1.429s-0.215-1.056-0.565-1.43l0.001 0.001zM0 32h6.141l-6.141-6.137v6.137zM14.408 32h14.408v-2.018h-14.408v2.018z"></path>
</svg>
