<!-- Generated by IcoMoon.io -->
<svg version="1.1" xmlns="http://www.w3.org/2000/svg" width="32" height="32" viewBox="0 0 32 32">
<title>feedback</title>
<path d="M27.993 25.035h-5.999c-2.098 1.9-5.553 5.719-5.645 5.819-0.092 0.087-0.217 0.14-0.354 0.14s-0.262-0.053-0.354-0.14v0s-4.583-4.759-5.645-5.819h-5.999c-2.206-0.007-3.992-1.793-3.999-3.998v-16.117c0.035-2.15 1.786-3.88 3.941-3.88 0.021 0 0.041 0 0.062 0h23.991c0.017 0 0.037 0 0.056 0 2.155 0 3.907 1.729 3.942 3.876v16.119c-0.007 2.206-1.793 3.992-3.998 3.999h-0.001zM9.012 11.318c-0.29-0.17-0.639-0.27-1.011-0.27s-0.721 0.1-1.020 0.275l0.010-0.005c-0.604 0.34-1.006 0.978-1.006 1.71s0.402 1.369 0.996 1.705l0.010 0.005c0.29 0.17 0.639 0.27 1.011 0.27s0.721-0.1 1.020-0.275l-0.010 0.005c0.604-0.341 1.005-0.978 1.005-1.709s-0.402-1.37-0.997-1.705l-0.010-0.005zM17.032 11.298c-0.29-0.17-0.639-0.27-1.011-0.27s-0.721 0.1-1.020 0.275l0.010-0.005c-0.6 0.335-1 0.967-1 1.692 0 0.003 0 0.005 0 0.008v0c0.002 0.732 0.4 1.371 0.99 1.714l0.009 0.005c0.292 0.161 0.64 0.255 1.011 0.255s0.718-0.094 1.022-0.26l-0.011 0.006c0.601-0.347 1-0.986 1-1.719 0 0 0-0.001 0-0.001v0c0-0.004 0-0.008 0-0.012 0-0.724-0.4-1.355-0.992-1.682l-0.010-0.005zM24.984 11.318c-0.29-0.17-0.639-0.27-1.012-0.27s-0.721 0.1-1.021 0.275l0.010-0.005c-0.603 0.341-1.004 0.979-1.004 1.71s0.401 1.368 0.994 1.705l0.010 0.005c0.29 0.17 0.639 0.27 1.012 0.27s0.721-0.1 1.021-0.275l-0.010 0.005c0.604-0.341 1.005-0.978 1.005-1.709s-0.402-1.37-0.997-1.705l-0.010-0.005z"></path>
</svg>
