<!-- Generated by IcoMoon.io -->
<svg version="1.1" xmlns="http://www.w3.org/2000/svg" width="32" height="32" viewBox="0 0 32 32">
<title>fullScreen</title>
<path d="M31.692 31.678c-0.163 0.196-0.408 0.32-0.681 0.32-0.008 0-0.016 0-0.024 0h-8.99c0 0 0 0 0 0-0.552 0-1-0.448-1-1s0.448-1 1-1c0 0 0 0 0 0v0l6.575 0.030-10.798-10.786 1.424-1.414 10.798 10.797v-6.626c0 0 0-0.001 0-0.002 0-0.549 0.443-0.995 0.991-0.998v0c0.001 0 0.002 0 0.003 0 0.546 0 0.989 0.443 0.989 0.989 0 0.004 0 0.008 0 0.012v-0.001l0.016 8.968c-0.005 0.279-0.12 0.531-0.304 0.713v0zM30.988 10.998c-0.549-0.004-0.992-0.449-0.992-0.998 0-0.001 0-0.001 0-0.002v0l0.032-6.573-10.798 10.786-1.408-1.414 10.798-10.795h-6.623c-0.553 0-1.001-0.448-1.001-1.001s0.448-1.001 1.001-1.001v0h8.959c0.002 0 0.004 0 0.006 0 0.28 0 0.533 0.116 0.713 0.302v0c0.187 0.164 0.304 0.403 0.304 0.67 0 0.010 0 0.020-0.001 0.031v-0.001 8.999c0 0.004 0 0.008 0 0.013 0 0.545-0.442 0.987-0.987 0.987-0.002 0-0.003 0-0.005 0v0zM12.799 14.171l-10.798-10.797v6.628c0 0 0 0 0 0 0 0.552-0.448 1-1 1s-1-0.448-1-1c0 0 0 0 0 0v0-8.97c0-0.001 0-0.002 0-0.003 0-0.276 0.11-0.526 0.288-0.71v0c0.171-0.197 0.422-0.32 0.702-0.32 0.001 0 0.002 0 0.002 0h9.007c0.553 0 1.001 0.448 1.001 1.001s-0.448 1.001-1.001 1.001v0l-6.575-0.034 10.782 10.787-1.408 1.413zM0.993 21c0.002 0 0.004 0 0.006 0 0.553 0 1.001 0.447 1.001 1v0l-0.032 6.573 10.782-10.786 1.408 1.414-10.798 10.797h6.639c0.552 0 1 0.448 1 1s-0.448 1-1 1h-8.975c-0.276-0.001-0.526-0.116-0.704-0.3v0c-0.196-0.158-0.321-0.398-0.321-0.667 0-0.012 0-0.024 0.001-0.035v0.002-8.997c0 0 0-0.001 0-0.002 0-0.549 0.443-0.995 0.992-0.998v0z"></path>
</svg>
