<!-- Generated by IcoMoon.io -->
<svg version="1.1" xmlns="http://www.w3.org/2000/svg" width="32" height="32" viewBox="0 0 32 32">
<title>goBack</title>
<path d="M25.014 15.926c-0.005 0.825-0.674 1.492-1.5 1.492-0.001 0-0.002 0-0.003 0h-10.211l4.321 4.291c0.272 0.269 0.441 0.642 0.441 1.055s-0.169 0.786-0.441 1.055v0c-0.273 0.27-0.649 0.437-1.063 0.437s-0.79-0.167-1.064-0.437v0l-6.878-6.83c-0.272-0.269-0.441-0.643-0.441-1.056s0.169-0.787 0.441-1.056v0l0.018-0.014 6.87-6.824c0.273-0.27 0.649-0.437 1.063-0.437s0.79 0.167 1.064 0.437v0c0.272 0.269 0.44 0.643 0.44 1.056s-0.168 0.786-0.44 1.055v0l-4.319 4.291h10.21c0.821 0.004 1.486 0.666 1.493 1.486v0.001zM30.521 13.712c-0.114 0.031-0.246 0.049-0.381 0.049-0.692 0-1.276-0.467-1.452-1.104l-0.003-0.011c-0.908-3.392-3.078-6.168-5.963-7.853l-0.061-0.033c-1.849-1.085-4.071-1.725-6.444-1.725-7.122 0-12.896 5.773-12.896 12.896s5.774 12.896 12.896 12.896c6.323 0 11.583-4.551 12.684-10.556l0.012-0.079c0.129-0.709 0.743-1.24 1.48-1.24 0.83 0 1.503 0.673 1.503 1.503 0 0.093-0.008 0.184-0.025 0.272l0.001-0.009c-1.344 7.591-7.891 13.283-15.768 13.283-8.837 0-16-7.163-16-16s7.163-16 16-16c2.975 0 5.76 0.812 8.146 2.226l-0.074-0.041c3.628 2.114 6.3 5.534 7.39 9.601l0.025 0.111c0.030 0.112 0.048 0.241 0.048 0.374 0 0.691-0.47 1.273-1.109 1.442l-0.010 0.002z"></path>
</svg>
