<!-- Generated by IcoMoon.io -->
<svg version="1.1" xmlns="http://www.w3.org/2000/svg" width="32" height="32" viewBox="0 0 32 32">
<title>goBefore</title>
<path d="M5.285 14.323l7.314-8.008c0.587-0.694 0.587-1.708 0-2.349-0.534-0.587-1.388-0.641-2.029-0.16l-0.16 0.16-9.716 10.517c-0.374 0.374-0.694 0.854-0.694 1.495s0.267 1.121 0.694 1.602l9.716 10.464c0.534 0.587 1.441 0.641 2.029 0.107l0.107-0.107c0.587-0.694 0.587-1.708 0-2.349l-7.261-8.008h25.198c0.854 0 1.548-0.747 1.548-1.655s-0.694-1.655-1.548-1.655l-25.198-0.053z"></path>
</svg>
