<!-- Generated by IcoMoon.io -->
<svg version="1.1" xmlns="http://www.w3.org/2000/svg" width="32" height="32" viewBox="0 0 32 32">
<title>hint</title>
<path d="M16 0c-8.837 0-16 7.163-16 16s7.163 16 16 16c8.837 0 16-7.163 16-16v0c0-8.837-7.163-16-16-16v0zM16 30.667c-0.001 0-0.002 0-0.003 0-8.101 0-14.667-6.567-14.667-14.667s6.567-14.667 14.667-14.667c8.101 0 14.667 6.567 14.667 14.667v0c0 0 0 0.001 0 0.002 0 8.099-6.565 14.665-14.664 14.665v0zM19.19 20.392c-0.403 0-1.989 2.341-2.854 2.341-0.192-0.003-0.346-0.16-0.346-0.352 0-0.010 0-0.020 0.001-0.030v0.001c0.087-0.576 0.258-1.096 0.502-1.572l-0.013 0.029 2.077-5.371c1.038-2.673-0.291-3.389-1.524-3.389-1.689 0.062-3.204 0.754-4.328 1.848l0.002-0.001c-0.587 0.626-1.036 1.388-1.293 2.235l-0.011 0.040c0.014 0.205 0.176 0.367 0.38 0.381h0.001c0.527 0 1.559-2.686 2.623-2.686 0.229 0 0.491 0.248 0.29 0.743l-2.018 4.846c-0.202 0.469-1.182 2.074-1.182 3.399 0 1.045 0.72 2.168 1.758 2.168 2.914 0 6.286-3.415 6.286-4.216 0-0.003 0-0.006 0-0.010 0-0.203-0.149-0.371-0.344-0.4h-0.002zM18.61 6.977c-0.015 0-0.032-0.001-0.050-0.001-1.24 0-2.252 0.975-2.312 2.199v0.005c-0.001 0.022-0.002 0.048-0.002 0.074 0 0.999 0.809 1.808 1.808 1.808 0.054 0 0.108-0.002 0.161-0.007l-0.007 0.001c0.032 0.002 0.070 0.003 0.108 0.003 1.235 0 2.241-0.979 2.284-2.203v-0.004c0-0.011 0-0.024 0-0.037 0-1.018-0.826-1.844-1.844-1.844-0.052 0-0.103 0.002-0.153 0.006h0.007z"></path>
</svg>
