<!-- Generated by IcoMoon.io -->
<svg version="1.1" xmlns="http://www.w3.org/2000/svg" width="32" height="32" viewBox="0 0 32 32">
<title>history</title>
<path d="M16 0.048c-5.363 0-10.1 2.636-13 6.675v-2.687c0-0.826-0.672-1.496-1.5-1.496s-1.5 0.67-1.5 1.496v5.982c0 0.826 0.672 1.496 1.5 1.496h6.5c0.828 0 1.5-0.67 1.5-1.496s-0.672-1.496-1.5-1.496h-2.609c2.353-3.316 6.225-5.484 10.609-5.484 7.18 0 13 5.803 13 12.961s-5.82 12.961-13 12.961c-6.051 0-11.122-4.128-12.571-9.71l-0.026 0.008c-0.202-0.588-0.745-1.016-1.403-1.016-0.828 0-1.5 0.67-1.5 1.495 0 0.147 0.044 0.281 0.084 0.415l-0.016 0.005c0.010 0.036 0.028 0.069 0.038 0.105 0.011 0.029 0.018 0.058 0.031 0.086 1.903 6.689 8.043 11.603 15.363 11.603 8.837 0 16-7.142 16-15.952s-7.163-15.952-16-15.952zM16 6.777c-0.828 0-1.5 0.67-1.5 1.496v8.973c0 0.826 0.672 1.496 1.5 1.496 0 0 0 0 0 0h6.5c0.828 0 1.5-0.67 1.5-1.495s-0.672-1.496-1.5-1.496h-5v-7.478c0-0.826-0.672-1.496-1.5-1.496z"></path>
</svg>
