<!-- Generated by IcoMoon.io -->
<svg version="1.1" xmlns="http://www.w3.org/2000/svg" width="32" height="32" viewBox="0 0 32 32">
<title>inResource</title>
<path d="M16 32c-8.837 0-16-7.163-16-16s7.163-16 16-16c8.837 0 16 7.163 16 16v0c0 8.837-7.163 16-16 16v0zM26.043 12.518l-9.463-6.724c-0.165-0.121-0.372-0.193-0.595-0.193-0.212 0-0.409 0.065-0.572 0.176l0.003-0.002-9.348 6.386c-0.286 0.199-0.47 0.525-0.47 0.895 0 0.366 0.181 0.69 0.458 0.886l0.003 0.002 9.424 6.48c0.036 0.024 0.077 0.049 0.12 0.070l0.006 0.003v4.94c-0.075-0.030-0.139-0.064-0.199-0.104l0.004 0.002-7.106-4.829c-0.255-0.177-0.419-0.468-0.419-0.797 0-0.002 0-0.004 0-0.006v0-1.452c0-0.001 0-0.002 0-0.004 0-0.016 0.009-0.030 0.023-0.036v0c0.006-0.004 0.014-0.007 0.023-0.007s0.016 0.003 0.023 0.007v0l6.312 4.256c0.066 0.045 0.148 0.072 0.237 0.072 0.151 0 0.284-0.079 0.36-0.199l0.001-0.002c0.044-0.069 0.071-0.153 0.071-0.243 0-0.154-0.077-0.29-0.194-0.371l-0.002-0.001-6.312-4.256c-0.139-0.096-0.311-0.153-0.497-0.153-0.159 0-0.308 0.042-0.436 0.115l0.004-0.002c-0.286 0.164-0.476 0.468-0.476 0.816 0 0.002 0 0.004 0 0.006v0 1.452c0 0.003 0 0.007 0 0.010 0 0.634 0.317 1.194 0.801 1.529l0.006 0.004 7.106 4.829c0.292 0.203 0.654 0.324 1.044 0.324 0.402 0 0.773-0.128 1.076-0.347l-0.005 0.004 6.4-4.538c0.458-0.33 0.753-0.862 0.753-1.463 0-0.003 0-0.006 0-0.009v0-4.854l1.821-1.258c0.225-0.16 0.369-0.42 0.369-0.714 0-0.288-0.139-0.544-0.354-0.703l-0.002-0.002zM22.966 20.786l-6.4 4.538c-0.030 0.021-0.062 0.040-0.092 0.056v-4.868c0.064-0.028 0.118-0.059 0.169-0.094l-0.004 0.002 6.705-4.631v4.258c0 0.001 0 0.002 0 0.003 0 0.302-0.148 0.569-0.376 0.733l-0.003 0.002zM15.39 16.088c-0.107 0.107-0.254 0.173-0.417 0.173-0.326 0-0.59-0.264-0.59-0.59 0-0.006 0-0.011 0-0.017v0.001l-0.033-5.815c0-0.005 0-0.011 0-0.018 0-0.323 0.261-0.584 0.584-0.584 0.165 0 0.314 0.068 0.42 0.178v0l4.243 2.925c0.108 0.111 0.174 0.263 0.174 0.43s-0.065 0.316-0.171 0.427v0z"></path>
</svg>
