<!-- Generated by IcoMoon.io -->
<svg version="1.1" xmlns="http://www.w3.org/2000/svg" width="32" height="32" viewBox="0 0 32 32">
<title>jilu_s</title>
<path d="M25.019 12.267c0.049-0.16 0.077-0.343 0.077-0.533s-0.028-0.374-0.080-0.547l0.003 0.013h-2.133c-0.589 0-1.067 0.478-1.067 1.067s0.478 1.067 1.067 1.067h1.067v7.467c-0.045 1.16-0.974 2.088-2.129 2.133h-0.004c-1.131 0-1.067-1.033-1.067-2.133v-11.733c0-0.709-1.163-1.067-1.888-1.067h-10.667c-0.004 0-0.008 0-0.013 0-0.713 0-1.291 0.574-1.299 1.285v13.399c0.008 0.712 0.586 1.285 1.299 1.285 0.005 0 0.009 0 0.014 0h13.61c0.126 0.020 0.271 0.031 0.419 0.031 0.68 0 1.304-0.238 1.794-0.635l-0.005 0.004c0.588-0.481 0.967-1.198 0.992-2.004v-9.098h0.011zM8.208 23.242c-0.32 0 0.811-1.067 0.811-1.379v-12.796c0-0.31-1.387 0-1.067 0h10.667c0.32 0 0-0.31 0 0v12.8c0 0.735-2.688 0.562-2.133 1.067h-8.533zM17.552 12.267h-7.467c-0.203 0.153-0.333 0.393-0.333 0.663 0 0.020 0.001 0.040 0.002 0.060v-0.003c0.001 0.2 0.164 0.362 0.364 0.362 0.003 0 0.007 0 0.010 0h6.912c0.2 0 0.362-0.162 0.362-0.362s-0.162-0.362-0.362-0.362v0zM17.040 15.427h-6.912c-0.003 0-0.006 0-0.010 0-0.201 0-0.363 0.162-0.364 0.363v0c-0.001 0.018-0.002 0.040-0.002 0.061 0 0.277 0.129 0.524 0.331 0.684l0.002 0.001h7.467c0.203 0-0.139-0.544-0.139-0.747-0.005-0.201-0.169-0.363-0.371-0.363-0.001 0-0.002 0-0.002 0v0zM14.363 18.588h-4.235c-0.003 0-0.007 0-0.011 0-0.2 0-0.362 0.162-0.363 0.362v0c-0.001 0.017-0.002 0.037-0.002 0.058 0 0.29 0.128 0.549 0.331 0.725l0.001 0.001h4.267c0.235-0.182 0.384-0.465 0.384-0.782 0-0.001 0-0.002 0-0.002v0c-0.001-0.2-0.163-0.362-0.363-0.362-0.004 0-0.008 0-0.011 0h0.001z"></path>
</svg>
