<!-- Generated by IcoMoon.io -->
<svg version="1.1" xmlns="http://www.w3.org/2000/svg" width="32" height="32" viewBox="0 0 32 32">
<title>jilu</title>
<path d="M32 9.191v16.6c-0.047 1.473-0.726 2.779-1.773 3.661l-0.008 0.006c-0.84 0.716-1.938 1.151-3.138 1.151-0.263 0-0.52-0.021-0.772-0.061l0.028 0.004h-24.014c-1.285-0.009-2.324-1.052-2.324-2.339 0-0.003 0-0.006 0-0.009v0-24.466c0-0.002 0-0.005 0-0.008 0-1.286 1.038-2.33 2.323-2.339h18.825c1.285 0.009 2.323 1.052 2.323 2.339 0 0.003 0 0.006 0 0.009v0 21.909c-0.004 0.067-0.007 0.145-0.007 0.224 0 1.998 1.62 3.617 3.617 3.617s3.617-1.62 3.617-3.617c0-0.079-0.003-0.157-0.008-0.235l0.001 0.011v-15.795h-2.254c-0.365 0-0.661-0.296-0.661-0.661s0.296-0.661 0.661-0.661v0h2.908c0.361 0.002 0.654 0.295 0.654 0.657 0 0.001 0 0.003 0 0.004v0zM22.163 25.688v-21.949c0-0.003 0-0.007 0-0.011 0-0.56-0.454-1.014-1.014-1.014-0.001 0-0.001 0-0.002 0h-18.824c-0.562 0.005-1.016 0.461-1.016 1.024 0 0.001 0 0.001 0 0.002v0 24.469c0 0 0 0 0 0 0 0.563 0.454 1.020 1.015 1.025h21.371c-0.933-0.897-1.516-2.152-1.53-3.542v-0.003zM3.84 9.838h12.202c0.365 0 0.661 0.296 0.661 0.661s-0.296 0.661-0.661 0.661v0h-12.202c-0.365 0-0.661-0.296-0.661-0.661s0.296-0.661 0.661-0.661v0zM3.84 14.955h12.202c0.365 0 0.661 0.296 0.661 0.661s-0.296 0.661-0.661 0.661h-12.202c-0.365 0-0.661-0.296-0.661-0.661s0.296-0.661 0.661-0.661v0zM3.84 20.725h7.485c0.365 0 0.661 0.296 0.661 0.661s-0.296 0.661-0.661 0.661v0h-7.485c-0.338-0.032-0.6-0.314-0.6-0.658s0.262-0.626 0.598-0.658h0.003z"></path>
</svg>
