<!-- Generated by IcoMoon.io -->
<svg version="1.1" xmlns="http://www.w3.org/2000/svg" width="32" height="32" viewBox="0 0 32 32">
<title>laoshi</title>
<path d="M30.024 31.995h-28.044c-1.118-0.124-1.98-1.064-1.98-2.205 0-0.156 0.016-0.308 0.047-0.454l-0.003 0.014c0-4.972 9.441-9.998 9.441-9.998l4.431 8.395 0.798-2.036-1.238-2.509 2.495-2.503 2.495 2.509-1.238 2.507 0.659 1.996 4.571-8.345s9.501 5.345 9.501 10.012c0.025 0.125 0.039 0.269 0.039 0.416 0 1.139-0.86 2.077-1.966 2.2l-0.010 0.001zM22.759 12.879c-0.435 1.731-1.247 3.233-2.345 4.474l0.010-0.011c-1.107 1.125-2.549 1.917-4.163 2.214l-0.048 0.007-0.14 0.026-0.14-0.022c-1.616-0.256-3.022-1.010-4.091-2.097l-0.001-0.001c-1.154-1.247-2.014-2.782-2.459-4.486l-0.016-0.073c-0.51-0.294-0.901-0.746-1.112-1.288l-0.006-0.017c-0.245-0.662-0.386-1.427-0.386-2.225 0-0.106 0.003-0.212 0.008-0.317l-0.001 0.015v-0.399l0.339-0.222c0.089-0.064 0.194-0.13 0.302-0.19l0.018-0.009c-0.499-3.048-0.359-5.647 1.477-7.385 1.457-1.074 4.032-0.343 6.387-0.695 6.727-0.998 6.667 2.405 7.345 8.184q0.060 0.036 0.12 0.078l0.319 0.222 0.020 0.399c0.002 0.068 0.004 0.148 0.004 0.229 0 0.81-0.14 1.587-0.398 2.308l0.015-0.048c-0.195 0.562-0.567 1.022-1.047 1.323l-0.011 0.006zM21.941 9.835l-0.1-0.341-0.22 0.012-0.14-0.661c-0.080-0.515-0.24-3.194-0.419-3.621-0.097 0.015-0.209 0.023-0.323 0.023-0.581 0-1.111-0.215-1.515-0.57l0.003 0.002-0.299 0.93-0.479-0.062 0.060-0.567-0.499 0.81-0.459-0.090 0.459-1.208c-2.375 1.653-6.487 1.567-7.026 0.828-0.065 0.11-0.113 0.239-0.139 0.376l-0.001 0.007c-0.12 0.445-0.24 3.216-0.339 3.657l-0.040 0.162c-0.028 0.065-0.056 0.145-0.077 0.227l-0.003 0.012c-0.133-0.037-0.285-0.058-0.442-0.058-0.192 0-0.376 0.031-0.548 0.089l0.012-0.004c0.017 0.445 0.103 0.864 0.249 1.255l-0.009-0.028c0.093 0.277 0.295 0.496 0.552 0.61l0.007 0.003 0.419 0.128 0.1 0.399c0.39 1.649 1.156 3.080 2.204 4.255l-0.008-0.010c0.816 0.834 1.883 1.418 3.079 1.63l0.034 0.005c1.294-0.246 2.413-0.868 3.272-1.745l0.001-0.001c0.992-1.143 1.717-2.545 2.064-4.089l0.012-0.063 0.1-0.387 0.379-0.136c0.26-0.123 0.456-0.347 0.537-0.62l0.002-0.007c0.145-0.354 0.232-0.765 0.239-1.195v-0.003c-0.007 0-0.015 0-0.023 0-0.238 0-0.473 0.013-0.704 0.039l0.029-0.003z"></path>
</svg>
