<!-- Generated by IcoMoon.io -->
<svg version="1.1" xmlns="http://www.w3.org/2000/svg" width="32" height="32" viewBox="0 0 32 32">
<title>listRecordIco</title>
<path d="M16.006 7.5c-2.862 0-5.391 1.407-6.939 3.563v-1.434c0-0.441-0.358-0.798-0.801-0.798s-0.801 0.357-0.801 0.798v3.193c0 0.441 0.358 0.798 0.801 0.798h3.469c0.442 0 0.801-0.357 0.801-0.798s-0.358-0.798-0.801-0.798h-1.393c1.256-1.77 3.322-2.927 5.662-2.927 3.832 0 6.938 3.097 6.938 6.918s-3.107 6.918-6.938 6.918c-3.23 0-5.936-2.203-6.71-5.182l-0.014 0.004c-0.108-0.314-0.398-0.542-0.749-0.542-0.442 0-0.801 0.357-0.801 0.798 0 0.079 0.024 0.15 0.045 0.222l-0.008 0.003c0.005 0.019 0.015 0.037 0.020 0.056 0.006 0.016 0.010 0.031 0.017 0.046 1.016 3.57 4.293 6.193 8.199 6.193 4.716 0 8.54-3.812 8.54-8.514s-3.823-8.514-8.54-8.514zM16.006 11.092c-0.442 0-0.801 0.357-0.801 0.798v4.789c0 0.441 0.358 0.798 0.801 0.798h3.469c0.442 0 0.801-0.357 0.801-0.798s-0.358-0.798-0.801-0.798h-2.669v-3.991c0-0.441-0.358-0.798-0.801-0.798z"></path>
</svg>
