<!-- Generated by IcoMoon.io -->
<svg version="1.1" xmlns="http://www.w3.org/2000/svg" width="32" height="32" viewBox="0 0 32 32">
<title>man</title>
<path fill="#d9a78c" d="M13.367 18.527h5.276v5.785h-5.276z"></path>
<path fill="#c0d4df" d="M26.571 28.569c-2.969 2.153-6.621 3.431-10.571 3.431v-9.754l2.643-0.221 0.644-0.048s5.016 0.73 5.756 1.509c0.384 0.394 1.019 2.864 1.528 5.083z"></path>
<path fill="#eac0a7" d="M16 1.97c2.566 0 6.611 1.461 6.611 8.284 0 3.94-1.288 6.525-1.845 7.236-0.519 0.653-3.411 2.056-4.766 2.056v-17.576z"></path>
<path fill="#eac0a7" d="M23.89 11.877c0.115-1.086-0.404-2.056-1.163-2.162-0.75-0.106-1.461 0.701-1.566 1.787-0.115 1.086 0.404 2.056 1.163 2.162 0.75 0.106 1.451-0.701 1.566-1.787z"></path>
<path fill="#f2d7bc" d="M16 1.97c-2.566 0-6.611 1.461-6.611 8.284 0 3.94 1.288 6.525 1.845 7.236 0.519 0.653 3.411 2.056 4.766 2.056v-17.576z"></path>
<path fill="#f2d7bc" d="M8.12 11.877c-0.115-1.086 0.404-2.056 1.163-2.162 0.75-0.106 1.461 0.701 1.566 1.787 0.115 1.086-0.404 2.056-1.163 2.162s-1.461-0.701-1.566-1.787z"></path>
<path fill="#cfe1eb" d="M16 22.246v9.754c-3.95 0-7.601-1.268-10.571-3.431 0.509-2.22 1.153-4.689 1.538-5.093 0.74-0.769 5.756-1.509 5.756-1.509l0.644 0.048 2.633 0.231z"></path>
<path fill="#fff" d="M16 22.246l-2.671-1.076-0.663 0.663 1.336 2.96zM16 22.246l2.681-1.076 0.663 0.663-1.336 2.96z"></path>
<path fill="#8b5f3c" d="M22.756 9.879s2.172-9.879-6.804-9.879c-9.014 0-6.756 9.61-6.756 9.61s1.23-0.701 1.23 2.45h0.231s0.432-2.114 0.567-4.007c3.171 0 5.977-0.404 8.332-2.354 1.336 0 1.518 1.672 1.518 2.941l-0.586 0.231s0.567 1.115 0.605 3.2h0.404s-0.038-3.498 1.259-2.191z"></path>
<path fill="#fff" d="M16 16.971c1.192 0 2.162-0.394 2.162-0.884h-4.324c0 0.49 0.971 0.884 2.162 0.884z"></path>
</svg>
