<!-- Generated by IcoMoon.io -->
<svg version="1.1" xmlns="http://www.w3.org/2000/svg" width="32" height="32" viewBox="0 0 32 32">
<title>more</title>
<path d="M16 0c1.395 0 2.526 1.131 2.526 2.526s-1.131 2.526-2.526 2.526c-1.395 0-2.526-1.131-2.526-2.526v0c0-1.395 1.131-2.526 2.526-2.526v0zM16 13.474c1.395 0 2.526 1.131 2.526 2.526s-1.131 2.526-2.526 2.526c-1.395 0-2.526-1.131-2.526-2.526v0c0-1.395 1.131-2.526 2.526-2.526v0zM16 26.947c1.395 0 2.526 1.131 2.526 2.526s-1.131 2.526-2.526 2.526c-1.395 0-2.526-1.131-2.526-2.526v0c0-1.395 1.131-2.526 2.526-2.526v0z"></path>
</svg>
