<!-- Generated by IcoMoon.io -->
<svg version="1.1" xmlns="http://www.w3.org/2000/svg" width="32" height="32" viewBox="0 0 32 32">
<title>mp3</title>
<path d="M28.8 32h-25.6c-1.767 0-3.2-1.433-3.2-3.2v0-25.6c0-1.767 1.433-3.2 3.2-3.2v0h25.6c1.767 0 3.2 1.433 3.2 3.2v0 25.6c0 1.767-1.433 3.2-3.2 3.2v0zM28.8 4.8c0-0.884-0.716-1.6-1.6-1.6v0h-22.4c-0.884 0-1.6 0.716-1.6 1.6v0 22.4c0 0.884 0.716 1.6 1.6 1.6v0h22.4c0.884 0 1.6-0.716 1.6-1.6v0-22.4zM23.968 21.224c-0.027 1.539-1.281 2.777-2.824 2.777-0.020 0-0.040 0-0.059-0.001h-1.693c-0.003 0-0.006 0-0.010 0-0.378 0-0.685-0.302-0.694-0.678v-5.415c0.009-0.377 0.316-0.678 0.694-0.678 0.003 0 0.007 0 0.010 0h2.991v-1.92c-0.059-3.194-2.662-5.761-5.865-5.761-0.036 0-0.073 0-0.109 0.001h-0.827c-0.031-0.001-0.068-0.001-0.105-0.001-3.206 0-5.812 2.565-5.879 5.755v1.926h2.992c0.006 0 0.012 0 0.019 0 0.376 0 0.681 0.303 0.685 0.678v5.415c-0.003 0.376-0.309 0.679-0.685 0.679-0.007 0-0.014 0-0.020 0h-1.695c-0.014 0-0.030 0-0.047 0-1.545 0-2.801-1.236-2.833-2.773v-0.523h-0.016v-5.394c0-0.011 0-0.023 0-0.036 0-1.017 0.218-1.984 0.61-2.855l-0.018 0.044c0.215-0.476 0.45-0.884 0.72-1.265l-0.016 0.023c0.282-0.405 0.587-0.758 0.925-1.079l0.003-0.003c0.334-0.324 0.7-0.618 1.092-0.876l0.028-0.017c0.367-0.244 0.788-0.47 1.23-0.655l0.050-0.019c0.871-0.363 1.883-0.574 2.944-0.574 0.006 0 0.011 0 0.017 0h0.831c0.008 0 0.018 0 0.027 0 1.052 0 2.054 0.211 2.967 0.593l-0.051-0.019c0.501 0.209 0.927 0.435 1.329 0.694l-0.034-0.020c0.419 0.28 0.785 0.574 1.123 0.896l-0.003-0.003c0.335 0.326 0.639 0.68 0.912 1.058l0.016 0.024c0.249 0.357 0.479 0.765 0.669 1.194l0.019 0.047c0.384 0.837 0.608 1.815 0.608 2.846v5.394h-0.032v0.52z"></path>
</svg>
