<!-- Generated by IcoMoon.io -->
<svg version="1.1" xmlns="http://www.w3.org/2000/svg" width="32" height="32" viewBox="0 0 32 32">
<title>newFolder</title>
<path d="M29.242 31.196h-26.492c-0.016 0-0.035 0.001-0.054 0.001-1.467 0-2.661-1.172-2.696-2.63v-25.133c0.035-1.462 1.229-2.634 2.696-2.634 0.019 0 0.038 0 0.056 0.001h14.722c3.23 0.144 4.972 3.25 4.956 6.384-0.048-0.053 6.347 0.030 6.347 0.030 1.766 0 3.198 1.432 3.198 3.198v0l0.016 18.149c-0.040 1.464-1.236 2.635-2.706 2.635-0.015 0-0.031 0-0.046 0h0.002zM19.185 5.616c0.002-0.032 0.004-0.070 0.004-0.108 0-0.826-0.669-1.495-1.495-1.495-0.038 0-0.076 0.001-0.113 0.004h-12.785c-0.883 0-1.599 0.716-1.599 1.599v0 1.599s15.124 0.070 15.988 0c0.023-0.24 0.036-0.518 0.036-0.799s-0.013-0.56-0.039-0.835l0.003 0.035zM28.778 12.011c-0.176-0.802-0.796-1.423-1.585-1.596l-0.014-0.003h-22.431c-0.059-0.009-0.127-0.014-0.197-0.014-0.759 0-1.375 0.616-1.375 1.375 0 0.084 0.008 0.166 0.022 0.246l-0.001-0.008v14.389c0.171 0.805 0.794 1.428 1.585 1.596l0.013 0.002h22.383c0.802-0.176 1.423-0.796 1.596-1.585l0.003-0.014v-14.389zM20.784 20.005h-4.796v4.796c0 1.45-1.599 1.45-1.599 0v-4.796h-4.796c-0.034 0.005-0.073 0.008-0.113 0.008-0.446 0-0.807-0.361-0.807-0.807s0.361-0.807 0.807-0.807c0.040 0 0.079 0.003 0.118 0.009l-0.004-0.001h4.796v-4.796c0-0.628 1.599-0.828 1.599 0v4.796h4.796c1.423 0 1.423 1.599 0 1.599z"></path>
</svg>
