<!-- Generated by IcoMoon.io -->
<svg version="1.1" xmlns="http://www.w3.org/2000/svg" width="32" height="32" viewBox="0 0 32 32">
<title>ok</title>
<path d="M16 32c-8.837 0-16-7.163-16-16s7.163-16 16-16c8.837 0 16 7.163 16 16v0c0 8.837-7.163 16-16 16v0zM23.904 10.208l-0.896-0.816c-0.049-0.039-0.111-0.062-0.179-0.062-0.058 0-0.113 0.017-0.158 0.047l0.001-0.001-8.496 9.104c-0.15 0.111-0.339 0.178-0.543 0.178-0.185 0-0.356-0.055-0.5-0.148l0.004 0.002-5.184-3.728c-0.035-0.025-0.079-0.039-0.127-0.039-0.072 0-0.136 0.034-0.177 0.087v0.001l-0.944 1.184c-0.028 0.039-0.045 0.088-0.045 0.141 0 0.070 0.029 0.134 0.077 0.178v0l6.608 7.536c0.082 0.074 0.192 0.12 0.312 0.12s0.23-0.046 0.312-0.12v0l9.936-13.376c0.037-0.037 0.060-0.088 0.060-0.144s-0.023-0.107-0.060-0.144v0z"></path>
</svg>
