<!-- Generated by IcoMoon.io -->
<svg version="1.1" xmlns="http://www.w3.org/2000/svg" width="32" height="32" viewBox="0 0 32 32">
<title>other</title>
<path d="M28.632 32h-25.263c-1.86 0-3.368-1.508-3.368-3.368v0-25.263c0-1.86 1.508-3.368 3.368-3.368v0h25.263c1.86 0 3.368 1.508 3.368 3.368v0 25.263c0 1.86-1.508 3.368-3.368 3.368v0zM28.632 5.053c0-0.93-0.754-1.684-1.684-1.684v0h-21.895c-0.93 0-1.684 0.754-1.684 1.684v0 21.895c0 0.93 0.754 1.684 1.684 1.684h21.895c0.93 0 1.684-0.754 1.684-1.684v0-21.895zM22.737 18.526c-1.395 0-2.526-1.131-2.526-2.526s1.131-2.526 2.526-2.526c1.395 0 2.526 1.131 2.526 2.526v0c0 1.395-1.131 2.526-2.526 2.526v0zM16 18.526c-1.395 0-2.526-1.131-2.526-2.526s1.131-2.526 2.526-2.526c1.395 0 2.526 1.131 2.526 2.526v0c0 1.395-1.131 2.526-2.526 2.526v0zM9.263 18.526c-1.395 0-2.526-1.131-2.526-2.526s1.131-2.526 2.526-2.526c1.395 0 2.526 1.131 2.526 2.526v0c0 1.395-1.131 2.526-2.526 2.526v0z"></path>
</svg>
