<!-- Generated by IcoMoon.io -->
<svg version="1.1" xmlns="http://www.w3.org/2000/svg" width="32" height="32" viewBox="0 0 32 32">
<title>pass</title>
<path d="M31.66 22.757l-7.55 8.702v0.019c-0.057 0.057-0.12 0.108-0.188 0.152l-0.004 0.003c-0.051 0.013-0.095 0.041-0.128 0.078v0c-0.121 0.053-0.262 0.084-0.41 0.084-0.013 0-0.026 0-0.039-0.001h0.002c-0.138-0.001-0.27-0.028-0.391-0.077l0.007 0.003c-0.023-0.022-0.043-0.045-0.063-0.070l-0.001-0.002c-0.1-0.026-0.187-0.076-0.256-0.142v0-0.019l-4.223-4.201c-0.207-0.186-0.336-0.454-0.336-0.752s0.129-0.567 0.335-0.751l0.001-0.001c0.187-0.196 0.45-0.317 0.741-0.317 0.286 0 0.545 0.117 0.73 0.306v0l3.455 3.438 6.847-7.908c0.188-0.207 0.458-0.336 0.758-0.336 0.277 0 0.529 0.11 0.714 0.29v0c0.193 0.192 0.312 0.458 0.312 0.751s-0.119 0.559-0.312 0.751v0zM9.456 21.683h5.439c0.015-0.001 0.033-0.001 0.051-0.001 0.57 0 1.032 0.462 1.032 1.032s-0.462 1.032-1.032 1.032c-0.018 0-0.036 0-0.054-0.001h-5.437c-0.015 0.001-0.033 0.001-0.051 0.001-0.57 0-1.032-0.462-1.032-1.032s0.462-1.032 1.032-1.032c0.018 0 0.036 0 0.054 0.001h-0.002zM21.166 9.31h-11.71c-0.015 0.001-0.033 0.001-0.051 0.001-0.57 0-1.032-0.462-1.032-1.032s0.462-1.032 1.032-1.032c0.018 0 0.036 0 0.054 0.001h11.708c0.015-0.001 0.033-0.001 0.051-0.001 0.57 0 1.032 0.462 1.032 1.032s-0.462 1.032-1.032 1.032c-0.018 0-0.036 0-0.054-0.001h0.003zM21.166 16.528h-11.71c-0.017 0.001-0.037 0.002-0.057 0.002-0.57 0-1.033-0.462-1.033-1.033s0.462-1.033 1.033-1.033c0.020 0 0.040 0.001 0.060 0.002h11.707c0.017-0.001 0.037-0.002 0.057-0.002 0.57 0 1.033 0.462 1.033 1.033s-0.462 1.033-1.033 1.033c-0.020 0-0.040-0.001-0.060-0.002h0.003zM29.548 19.621c-0.004 0-0.008 0-0.012 0-0.578 0-1.050-0.456-1.075-1.029v-0.002c0-0.021 0.064-0.038 0.064-0.058h-0.064v-14.295c0-0.685 0.064-1.385-0.256-1.778-0.32-0.434-1.024-0.378-1.792-0.378h-22.268c-0.768 0-1.472-0.057-1.792 0.378-0.32 0.393-0.256 1.093-0.256 1.778v23.315c0 0.754-0.064 1.788 0.384 2.099 0.335 0.176 0.731 0.28 1.152 0.28 0.113 0 0.224-0.007 0.332-0.022l-0.013 0.001h12.989v0.031c0.064 0 0.064-0.010 0.064-0.010 0.569 0 1.031 0.462 1.031 1.031s-0.461 1.031-1.031 1.031v0c-0.163-0.004-0.316-0.040-0.456-0.102l0.008 0.003h-12.605c-0.095 0.006-0.205 0.010-0.317 0.010-0.318 0-0.629-0.029-0.93-0.085l0.031 0.005c-1.039-0.252-1.885-0.929-2.358-1.833l-0.009-0.020c-0.384-0.779-0.32-1.84-0.32-2.988v-22.712c-0.019-0.172-0.030-0.371-0.030-0.573 0-0.55 0.081-1.082 0.232-1.583l-0.010 0.039c0.341-0.813 0.947-1.459 1.707-1.843l0.021-0.009c0.169-0.075 0.381-0.152 0.599-0.217l0.041-0.010c0.141-0.012 0.272-0.039 0.396-0.080l-0.012 0.003h24.571c0.114 0.044 0.245 0.071 0.382 0.076h0.002c0.259 0.075 0.471 0.153 0.677 0.242l-0.038-0.014c0.747 0.415 1.326 1.055 1.654 1.828l0.009 0.025c0.173 0.506 0.273 1.089 0.273 1.695 0 0.149-0.006 0.296-0.018 0.442l0.001-0.019v13.995c0 0.102 0.064 0.207 0.064 0.32 0 0.004 0 0.008 0 0.013 0 0.563-0.457 1.020-1.020 1.020-0.001 0-0.003 0-0.004 0v0z"></path>
</svg>
