<!-- Generated by IcoMoon.io -->
<svg version="1.1" xmlns="http://www.w3.org/2000/svg" width="32" height="32" viewBox="0 0 32 32">
<title>password</title>
<path d="M26.356 31.999h-20.711c-0.017 0-0.038 0.001-0.058 0.001-1.736 0-3.147-1.389-3.182-3.116v-13.242c0.034-1.731 1.445-3.121 3.181-3.121 0.021 0 0.042 0 0.063 0.001h0.797v-3.095c0.070-5.221 4.318-9.427 9.549-9.427s9.48 4.206 9.549 9.42v3.102h0.8c0.022-0.001 0.047-0.001 0.073-0.001 1.736 0 3.146 1.39 3.179 3.118v13.242c-0.035 1.73-1.445 3.119-3.181 3.119-0.020 0-0.041 0-0.061-0.001h0.003zM14.637 22.171v3.474c0.061 0.703 0.646 1.25 1.36 1.25s1.299-0.547 1.359-1.245v-3.479c0.814-0.449 1.358-1.299 1.364-2.277v-0.001c-0.052-1.467-1.254-2.637-2.729-2.637s-2.677 1.17-2.729 2.632v0.005c0.008 0.979 0.552 1.829 1.352 2.271l0.013 0.007zM22.822 9.334c-0.13-3.667-3.134-6.591-6.821-6.591s-6.691 2.924-6.82 6.579v3.2h13.642v-3.188z"></path>
</svg>
