<!-- Generated by IcoMoon.io -->
<svg version="1.1" xmlns="http://www.w3.org/2000/svg" width="32" height="32" viewBox="0 0 32 32">
<title>picture</title>
<path d="M28.8 28.8l-27.168-0.040c-0.895-0.011-1.619-0.732-1.632-1.626v-20.734c0-0.010 0-0.021 0-0.032 0-1.75 1.418-3.168 3.168-3.168 0.011 0 0.023 0 0.034 0h25.598s3.152 1.13 3.152 3.272l0.048 19.128s-0.56 3.2-3.2 3.2zM28.8 6.4h-25.6v19.2h1.6l4.8-8 6.4 8 4.8-4.8 4.8 4.8h3.2v-19.2zM23.168 14.4c-0.028 0.001-0.060 0.002-0.093 0.002-1.258 0-2.278-1.020-2.278-2.278 0-0.043 0.001-0.087 0.004-0.129v0.006c0.019-1.307 1.064-2.363 2.365-2.4h0.003c0.024-0.001 0.053-0.001 0.082-0.001 1.298 0 2.35 1.052 2.35 2.35 0 0.018 0 0.036-0.001 0.054v-0.003c0.006 0.061 0.009 0.132 0.009 0.204 0 1.219-0.989 2.208-2.208 2.208-0.082 0-0.163-0.005-0.243-0.013l0.010 0.001z"></path>
</svg>
