<!-- Generated by IcoMoon.io -->
<svg version="1.1" xmlns="http://www.w3.org/2000/svg" width="32" height="32" viewBox="0 0 32 32">
<title>play</title>
<path d="M6.227 32c-0.235-0.002-0.456-0.064-0.647-0.173l0.007 0.003c-0.469-0.275-0.779-0.777-0.779-1.351 0-0.009 0-0.018 0-0.027v0.001-28.911c0-0.007 0-0.016 0-0.025 0-0.569 0.304-1.066 0.758-1.339l0.007-0.004c0.189-0.11 0.415-0.175 0.657-0.175 0.306 0 0.587 0.104 0.811 0.278l-0.003-0.002 19.542 13.995c0.374 0.3 0.612 0.757 0.612 1.27 0 0.498-0.224 0.944-0.577 1.242l-0.002 0.002-19.545 14.913c-0.227 0.187-0.52 0.301-0.84 0.302v0z"></path>
</svg>
