<!-- Generated by IcoMoon.io -->
<svg version="1.1" xmlns="http://www.w3.org/2000/svg" width="32" height="32" viewBox="0 0 32 32">
<title>pullUp</title>
<path d="M16.011 6.415c-0.459 0.004-0.871 0.201-1.16 0.514l-0.001 0.001-14.388 15.737c-0.287 0.316-0.463 0.738-0.463 1.201 0 0.475 0.185 0.906 0.486 1.226l-0.001-0.001c0.286 0.304 0.69 0.493 1.139 0.493 0.459 0 0.872-0.198 1.159-0.514l0.001-0.001 13.227-14.474 13.217 14.487c0.286 0.306 0.692 0.497 1.143 0.497s0.857-0.191 1.142-0.496l0.001-0.001c0.301-0.32 0.486-0.751 0.486-1.226 0-0.458-0.172-0.876-0.455-1.193l0.002 0.002-14.388-15.737c-0.287-0.311-0.694-0.507-1.146-0.515h-0.001z"></path>
</svg>
