<!-- Generated by IcoMoon.io -->
<svg version="1.1" xmlns="http://www.w3.org/2000/svg" width="32" height="32" viewBox="0 0 32 32">
<title>radioCheked</title>
<path d="M16 32c-8.837 0-16-7.163-16-16s7.163-16 16-16c8.837 0 16 7.163 16 16v0c0 8.837-7.163 16-16 16v0zM16 1.6c-7.953 0-14.4 6.447-14.4 14.4s6.447 14.4 14.4 14.4c7.953 0 14.4-6.447 14.4-14.4v0c0-7.953-6.447-14.4-14.4-14.4v0zM16 27.2c-6.186 0-11.2-5.014-11.2-11.2s5.014-11.2 11.2-11.2c6.186 0 11.2 5.014 11.2 11.2v0c0 6.186-5.014 11.2-11.2 11.2v0z"></path>
</svg>
