<!-- Generated by IcoMoon.io -->
<svg version="1.1" xmlns="http://www.w3.org/2000/svg" width="32" height="32" viewBox="0 0 32 32">
<title>recordeVideo</title>
<path d="M20.435 6.24h-17.713c-1.507 0.017-2.721 1.242-2.721 2.751 0 0.015 0 0.030 0 0.045v-0.002 13.973c0 0.013 0 0.028 0 0.043 0 1.509 1.215 2.735 2.72 2.753h17.715c1.508-0.025 2.721-1.253 2.721-2.765 0-0.011 0-0.021 0-0.032v0.002-13.973c0-0.009 0-0.020 0-0.031 0-1.511-1.213-2.739-2.719-2.763h-0.002zM8.857 20.912v-9.781l8.163 4.891zM29.398 8.525l-4.873 3.632v7.727l4.873 3.632c0.345 0.491 0.909 0.808 1.547 0.808 0.399 0 0.769-0.124 1.074-0.335l-0.006 0.004v-15.944c-0.298-0.207-0.668-0.331-1.067-0.331-0.638 0-1.202 0.317-1.543 0.802l-0.004 0.006z"></path>
</svg>
