<!-- Generated by IcoMoon.io -->
<svg version="1.1" xmlns="http://www.w3.org/2000/svg" width="32" height="32" viewBox="0 0 32 32">
<title>refresh</title>
<path d="M31.96 16.244l-3.984 6.137c-0.031 0.049-0.084 0.081-0.145 0.081s-0.115-0.032-0.145-0.080v-0.001l-3.984-6.137c-0.017-0.025-0.027-0.056-0.027-0.089s0.010-0.064 0.027-0.089v0.001c0.026-0.055 0.081-0.092 0.145-0.093h2.37c0-0.008 0-0.017 0-0.025 0-2.516-0.877-4.827-2.342-6.644l0.016 0.020c0-0.001 0-0.002 0-0.003 0-0.010-0.006-0.018-0.015-0.022v0c-1.023-1.264-2.313-2.27-3.788-2.941l-0.065-0.026c-0.029-0.010-0.044-0.025-0.073-0.033-0.167-0.075-0.422-0.173-0.681-0.264l-0.090-0.027-0.218-0.074c-0.167-0.057-0.396-0.12-0.629-0.173l-0.054-0.010-0.32-0.073c-0.175-0.037-0.417-0.077-0.663-0.108l-0.050-0.005-0.276-0.035c-0.291-0.031-0.596-0.045-0.901-0.047-0.031 0-0.067-0.001-0.103-0.001-2.191 0-4.215 0.709-5.858 1.91l0.028-0.020c-0.258 0.186-0.581 0.297-0.929 0.297-0.549 0-1.033-0.276-1.321-0.698l-0.004-0.005c-0.182-0.265-0.291-0.592-0.291-0.945 0-0.559 0.273-1.054 0.694-1.359l0.005-0.003c2.126-1.557 4.792-2.492 7.677-2.494v0c0.004-0.001 0.009-0.002 0.015-0.002s0.010 0.001 0.015 0.002v0c0.058 0 0.131 0.010 0.189 0.010 0.363 0 0.712 0.020 1.076 0.055 0.145 0.015 0.291 0.038 0.436 0.058 0.218 0.028 0.422 0.044 0.64 0.081 0.073 0.016 0.145 0.039 0.233 0.054 0.16 0.032 0.305 0.073 0.465 0.111 0.291 0.068 0.567 0.145 0.858 0.225 0.116 0.035 0.218 0.077 0.334 0.116 0.32 0.109 0.64 0.227 0.945 0.358 0.066 0.026 0.118 0.050 0.169 0.077l-0.009-0.004c2.014 0.904 3.7 2.219 5.011 3.848l0.020 0.026c0.021 0.036 0.045 0.067 0.073 0.094v0c0.189 0.253 0.393 0.507 0.582 0.779 0.024 0.032 0.044 0.068 0.057 0.108l0.001 0.003c1.484 2.181 2.37 4.874 2.37 7.773 0 0.013 0 0.025 0 0.038v-0.002h2.37c0.068 0 0.127 0.037 0.159 0.091v0.001c0.009 0.022 0.015 0.048 0.015 0.075 0 0.038-0.011 0.074-0.030 0.104v-0.001zM8.289 15.879c-0.027 0.055-0.082 0.092-0.145 0.093h-2.37c0 0.005 0 0.011 0 0.017 0 2.471 0.843 4.744 2.257 6.55l-0.018-0.023c0.044 0.052 0.073 0.108 0.116 0.159q0.305 0.359 0.611 0.689c0.013 0.012 0.027 0.024 0.042 0.035l0.001 0.001c0.669 0.687 1.429 1.281 2.262 1.763l0.050 0.027 0.044 0.019c0.247 0.145 0.509 0.266 0.771 0.385 0.058 0.023 0.102 0.048 0.16 0.070 0.218 0.097 0.451 0.18 0.683 0.262l0.291 0.099c0.204 0.063 0.407 0.112 0.625 0.163 0.116 0.031 0.247 0.065 0.378 0.090 0.218 0.042 0.436 0.073 0.654 0.102 0.116 0.016 0.218 0.032 0.334 0.045 0.276 0.025 0.553 0.041 0.843 0.044 0.043 0.001 0.094 0.001 0.145 0.001 2.191 0 4.216-0.709 5.859-1.911l-0.028 0.020c0.258-0.188 0.581-0.301 0.931-0.301 0.549 0 1.033 0.278 1.319 0.701l0.004 0.006c0.183 0.266 0.292 0.595 0.292 0.949 0 0.555-0.267 1.047-0.68 1.355l-0.004 0.003c-2.13 1.56-4.801 2.499-7.69 2.505h-0.002c-0.451 0-0.901-0.029-1.352-0.074-0.087-0.012-0.174-0.026-0.262-0.036-0.247-0.032-0.509-0.057-0.756-0.103-0.073-0.012-0.145-0.033-0.218-0.051-0.174-0.035-0.349-0.080-0.523-0.122-0.363-0.084-0.626-0.155-0.886-0.234l0.101 0.026c-0.145-0.045-0.276-0.095-0.422-0.145-0.291-0.1-0.582-0.206-0.858-0.327-0.087-0.036-0.174-0.077-0.262-0.112-0.32-0.145-0.654-0.311-0.974-0.486l-0.087-0.052c-1.156-0.658-2.151-1.43-3.022-2.324l-0.003-0.003c-0.029-0.025-0.044-0.051-0.073-0.080-0.262-0.281-0.523-0.567-0.771-0.872-0.065-0.073-0.127-0.153-0.184-0.237l-0.005-0.008c-0.16-0.215-0.334-0.425-0.494-0.653l-0.044-0.095c-1.493-2.18-2.385-4.875-2.385-7.778 0-0.018 0-0.035 0-0.053v0.003h-2.37c-0.068 0-0.127-0.037-0.159-0.091v-0.001c-0.010-0.022-0.015-0.048-0.015-0.075 0-0.038 0.011-0.074 0.030-0.104v0.001l3.984-6.139c0.032-0.047 0.085-0.077 0.145-0.077s0.113 0.030 0.145 0.076v0.001l3.984 6.137c0.013 0.025 0.021 0.055 0.021 0.086s-0.008 0.061-0.021 0.088l0.001-0.001z"></path>
</svg>
