<!-- Generated by IcoMoon.io -->
<svg version="1.1" xmlns="http://www.w3.org/2000/svg" width="32" height="32" viewBox="0 0 32 32">
<title>refuse</title>
<path d="M27.186 25.915c0.017 0.014 0.036 0.026 0.057 0.035h0.001q1.832 1.853 3.664 3.704c0.291 0.282 0.989 0.795 0.756 1.54-0.033 0.166-0.093 0.314-0.178 0.445l0.003-0.005c-0.234 0.227-0.553 0.366-0.905 0.366-0.27 0-0.52-0.082-0.728-0.222l0.005 0.003c-1.396-1.418-2.85-2.835-4.246-4.254-0.022 0.010-0.041 0.023-0.058 0.037v0c-0.103 0.093-0.198 0.188-0.288 0.287l-0.701 0.701c-0.698 0.721-1.454 1.442-2.152 2.164l-1.047 1.027c-0.177 0.111-0.392 0.176-0.623 0.176-0.385 0-0.728-0.183-0.945-0.468l-0.002-0.003c-0.058-0.116-0.058-0.212-0.116-0.366-0.233-0.809 0.407-1.189 0.756-1.54 0.872-0.856 1.687-1.71 2.559-2.567l0.698-0.733c0.125-0.081 0.224-0.193 0.289-0.325l0.002-0.005c-0.101-0.102-0.196-0.209-0.285-0.322l-0.006-0.008-0.698-0.698-2.268-2.236c-0.407-0.429-1.047-0.802-1.221-1.467-0.003-0.029-0.004-0.063-0.004-0.098 0-0.424 0.234-0.793 0.58-0.985l0.006-0.003c0.116-0.061 0.291-0.035 0.407-0.11 0.931 0 1.221 0.474 1.687 0.938l2.443 2.421c0.303 0.377 0.648 0.703 1.031 0.978l0.016 0.011c1.396-1.396 2.733-2.786 4.129-4.18 0.189-0.118 0.419-0.189 0.665-0.189 0.385 0 0.73 0.172 0.963 0.444l0.001 0.002c0.109 0.19 0.174 0.417 0.174 0.66s-0.065 0.47-0.177 0.666l0.003-0.006c-1.396 1.396-2.792 2.786-4.246 4.18zM9.389 21.029h5.293c0.552 0 1 0.448 1 1s-0.447 1-1 1h-5.293c-0.014 0.001-0.031 0.001-0.048 0.001-0.553 0-1.001-0.448-1.001-1.001s0.448-1.001 1.001-1.001c0.017 0 0.034 0 0.051 0.001h-0.002zM20.73 9.032h-11.341c-0.012 0.001-0.027 0.001-0.042 0.001-0.553 0-1.001-0.448-1.001-1.001s0.448-1.001 1.001-1.001c0.015 0 0.029 0 0.044 0.001h11.339c0.542 0.013 0.976 0.456 0.976 1s-0.434 0.987-0.975 1h-0.001zM20.73 16.031h-11.341c-0.012 0.001-0.027 0.001-0.042 0.001-0.553 0-1.001-0.448-1.001-1.001s0.448-1.001 1.001-1.001c0.015 0 0.029 0 0.044 0.001h11.339c0.542 0.014 0.976 0.456 0.976 1s-0.434 0.987-0.975 1h-0.001zM28.756 19.030c-0.545-0.011-0.984-0.454-0.989-0.999v-13.919c0.014-0.111 0.022-0.24 0.022-0.37 0-0.493-0.116-0.958-0.321-1.372l0.008 0.018c-0.291-0.421-0.989-0.366-1.745-0.366h-21.461c-0.756 0-1.454-0.058-1.745 0.366-0.291 0.381-0.233 1.060-0.233 1.724v22.609c0 0.731-0.058 1.734 0.407 2.036 0.312 0.172 0.684 0.273 1.080 0.273 0.112 0 0.221-0.008 0.328-0.024l-0.012 0.001h12.563v0.031s0-0.010 0.058-0.010c0.552 0 1 0.448 1 1s-0.448 1-1 1v0c-0.169-0.004-0.328-0.038-0.474-0.099l0.009 0.003h-12.214c-0.086 0.006-0.187 0.010-0.289 0.010-0.289 0-0.571-0.028-0.844-0.082l0.027 0.005c-1.019-0.238-1.851-0.896-2.317-1.778l-0.009-0.019c-0.349-0.756-0.291-1.784-0.291-2.896v-22.024c-0.017-0.166-0.027-0.36-0.027-0.555 0-0.533 0.074-1.048 0.211-1.537l-0.010 0.040c0.343-0.784 0.932-1.407 1.666-1.787l0.020-0.010c0.156-0.073 0.349-0.148 0.547-0.21l0.035-0.010c0.147-0.006 0.287-0.033 0.417-0.077l-0.010 0.003h23.671c0.121 0.042 0.26 0.069 0.404 0.074h0.003c0.233 0.072 0.426 0.147 0.612 0.233l-0.031-0.013c0.755 0.389 1.343 1.013 1.677 1.773l0.009 0.023c0.157 0.491 0.248 1.056 0.248 1.642 0 0.144-0.006 0.287-0.016 0.429l0.001-0.019v13.572c0 0.099 0.058 0.201 0.058 0.312-0.012 0.555-0.465 1-1.022 1-0.009 0-0.018 0-0.027 0h0.001z"></path>
</svg>
