<!-- Generated by IcoMoon.io -->
<svg version="1.1" xmlns="http://www.w3.org/2000/svg" width="32" height="32" viewBox="0 0 32 32">
<title>resource</title>
<path d="M7.249 30.858c0 0.631-0.511 1.142-1.142 1.142v0h-4.958c-0.631 0-1.142-0.512-1.142-1.142v0-23.959c0-0.631 0.511-1.142 1.142-1.142v0h4.958c0.631 0 1.142 0.511 1.142 1.142v0 23.959zM6.015 8.237c-0.017-0.632-0.531-1.139-1.165-1.142h-2.445c-0.631 0-1.142 0.511-1.142 1.142v0 0.13c0 0.631 0.512 1.142 1.142 1.142v0h2.445c0.634-0.004 1.149-0.51 1.165-1.141v-0.132zM9.511 1.154c0-0.631 0.511-1.142 1.142-1.142h4.89c0.631 0 1.142 0.511 1.142 1.142v0 29.704c0 0.631-0.512 1.142-1.142 1.142h-4.89c-0.631 0-1.142-0.512-1.142-1.142v0-29.704zM15.634 2.383c0-0.631-0.511-1.142-1.142-1.142v0h-2.628c-0.631 0-1.142 0.512-1.142 1.142v0 0.21c0 0.631 0.511 1.142 1.142 1.142h2.628c0.631 0 1.142-0.511 1.142-1.142v0-0.21zM31.926 28.76c0.035 0.106 0.055 0.227 0.055 0.353 0 0.19-0.046 0.37-0.127 0.528l0.003-0.007c-0.135 0.27-0.37 0.474-0.655 0.564l-0.008 0.002-4.707 1.522c-0.105 0.035-0.227 0.056-0.353 0.056-0.505 0-0.933-0.327-1.084-0.781l-0.002-0.008-7.472-22.78c-0.035-0.106-0.055-0.227-0.055-0.353 0-0.19 0.046-0.37 0.127-0.528l-0.003 0.007c0.135-0.27 0.37-0.474 0.655-0.564l0.008-0.002 4.707-1.524c0.105-0.035 0.227-0.056 0.353-0.056 0.505 0 0.933 0.327 1.084 0.781l0.002 0.008 7.472 22.783zM23.7 7.632c-0.153-0.462-0.582-0.789-1.087-0.789-0.126 0-0.248 0.020-0.361 0.058l0.008-0.002-2.331 0.756c-0.472 0.147-0.809 0.581-0.809 1.093 0 0.125 0.020 0.245 0.057 0.357l-0.002-0.008 0.046 0.123c0.153 0.462 0.582 0.789 1.087 0.789 0.126 0 0.248-0.020 0.361-0.058l-0.008 0.002 2.353-0.754c0.46-0.161 0.784-0.591 0.784-1.096 0-0.123-0.019-0.242-0.055-0.354l0.002 0.008-0.046-0.126z"></path>
</svg>
