<!-- Generated by IcoMoon.io -->
<svg version="1.1" xmlns="http://www.w3.org/2000/svg" width="32" height="32" viewBox="0 0 32 32">
<title>search</title>
<path d="M30.921 30.913c-0.674 0.665-1.6 1.076-2.622 1.076s-1.948-0.411-2.622-1.076l-3.804-3.802c-0.666-0.667-1.078-1.588-1.078-2.605 0-0.103 0.004-0.206 0.013-0.307l-0.001 0.013c-2.105 1.468-4.717 2.345-7.533 2.345-7.331 0-13.273-5.943-13.273-13.273s5.943-13.273 13.273-13.273c7.331 0 13.273 5.943 13.273 13.273 0 2.816-0.877 5.428-2.373 7.576l0.029-0.043c0.090-0.008 0.194-0.012 0.299-0.012 1.021 0 1.945 0.412 2.616 1.079l3.804 3.802c0.667 0.67 1.080 1.594 1.080 2.614s-0.412 1.944-1.080 2.614v0zM21.108 5.439c-2.008-2.010-4.783-3.253-7.849-3.253-6.128 0-11.096 4.968-11.096 11.096s4.968 11.096 11.096 11.096c3.066 0 5.841-1.243 7.849-3.253v0c2.004-2.009 3.243-4.781 3.243-7.843s-1.239-5.834-3.243-7.843v0zM4.15 15.998c-0.111-0.563-0.175-1.211-0.175-1.874 0-5.591 4.532-10.123 10.123-10.123 0.669 0 1.322 0.065 1.954 0.188l-0.064-0.010c-5.882 1.399-10.43 5.94-11.817 11.711l-0.022 0.108z"></path>
</svg>
