<!-- Generated by IcoMoon.io -->
<svg version="1.1" xmlns="http://www.w3.org/2000/svg" width="32" height="32" viewBox="0 0 32 32">
<title>shijian</title>
<path d="M16 32c-8.837 0-16-7.163-16-16s7.163-16 16-16c8.837 0 16 7.163 16 16v0c0 8.837-7.163 16-16 16v0zM26.020 5.98c-2.559-2.551-6.089-4.128-9.988-4.128-7.814 0-14.148 6.334-14.148 14.148s6.334 14.148 14.148 14.148c7.814 0 14.148-6.334 14.148-14.148 0 0 0 0 0 0v0c0-0.007 0-0.015 0-0.024 0-3.907-1.59-7.443-4.159-9.995l-0.001-0.001zM16 27.94c-6.583 0-11.92-5.337-11.92-11.92s5.337-11.92 11.92-11.92c6.583 0 11.92 5.337 11.92 11.92v0c-0.002 6.582-5.338 11.918-11.92 11.92v0zM22.32 17.72c-0.003-0.363-0.297-0.657-0.66-0.66h-4.96v-7.46c-0.009-0.425-0.354-0.766-0.78-0.768v0c-0.42 0.001-0.76 0.342-0.76 0.762 0 0.002 0 0.004 0 0.006v0 8.246c0 0.006 0 0.013 0 0.020 0 0.214 0.092 0.406 0.24 0.539l0.001 0.001c0.138 0.122 0.32 0.198 0.52 0.2h5.74c0.363-0.003 0.657-0.297 0.66-0.66v-0.22z"></path>
</svg>
