<!-- Generated by IcoMoon.io -->
<svg version="1.1" xmlns="http://www.w3.org/2000/svg" width="32" height="32" viewBox="0 0 32 32">
<title>star</title>
<path d="M31.917 12.444c-0.17-0.597-0.661-1.045-1.271-1.149l-0.009-0.001-9.12-1.692-4.089-8.663c-0.246-0.558-0.794-0.94-1.431-0.94s-1.185 0.383-1.427 0.93l-0.004 0.010-4.071 8.663-9.12 1.749c-0.622 0.11-1.117 0.556-1.295 1.14l-0.003 0.012c-0.049 0.154-0.077 0.332-0.077 0.516 0 0.471 0.185 0.899 0.487 1.215l-0.001-0.001 6.596 6.434-1.724 9.353c-0.016 0.089-0.026 0.191-0.026 0.295 0 0.55 0.259 1.039 0.662 1.352l0.004 0.003c0.267 0.189 0.599 0.303 0.957 0.303 0.266 0 0.518-0.063 0.741-0.174l-0.010 0.004 8.32-4.292 8.267 4.292c0.214 0.121 0.471 0.192 0.744 0.192 0.358 0 0.687-0.122 0.949-0.328l-0.003 0.003c0.404-0.331 0.659-0.829 0.659-1.388 0-0.092-0.007-0.183-0.021-0.272l0.001 0.010-1.671-9.353 6.596-6.494c0.294-0.312 0.474-0.733 0.474-1.197 0-0.19-0.030-0.373-0.086-0.544l0.003 0.012z"></path>
</svg>
