<!-- Generated by IcoMoon.io -->
<svg version="1.1" xmlns="http://www.w3.org/2000/svg" width="32" height="32" viewBox="0 0 32 32">
<title>success</title>
<path d="M6.061 16.081c-0.176-0.165-0.285-0.399-0.285-0.658 0-0.498 0.404-0.902 0.902-0.902 0.249 0 0.475 0.101 0.638 0.265v0l6.012 5.849 11.348-11.18c0.161-0.151 0.378-0.244 0.617-0.244 0.498 0 0.901 0.404 0.901 0.901 0 0.244-0.097 0.465-0.254 0.628v0l-11.977 11.798c-0.162 0.159-0.385 0.257-0.63 0.257s-0.468-0.098-0.63-0.257v0zM16.001 0c0 0 0 0 0 0 8.836 0 15.999 7.163 15.999 15.999s-7.163 15.999-15.999 15.999c-8.836 0-15.999-7.163-15.999-15.999 0-4.418 1.791-8.418 4.686-11.313v0c2.887-2.895 6.88-4.686 11.292-4.686 0.007 0 0.015 0 0.022 0h-0.001zM26.181 5.818c-2.606-2.605-6.205-4.216-10.18-4.216-7.953 0-14.399 6.447-14.399 14.399s6.447 14.399 14.399 14.399c7.953 0 14.399-6.447 14.399-14.399 0-0.001 0-0.001 0-0.002v0c0-0.005 0-0.011 0-0.017 0-3.971-1.612-7.565-4.218-10.164v0z"></path>
</svg>
