<!-- Generated by IcoMoon.io -->
<svg version="1.1" xmlns="http://www.w3.org/2000/svg" width="32" height="32" viewBox="0 0 32 32">
<title>swf</title>
<path d="M28.8 32h-25.6c-1.767 0-3.2-1.433-3.2-3.2v0-25.6c0-1.767 1.433-3.2 3.2-3.2v0h25.6c1.767 0 3.2 1.433 3.2 3.2v0 25.6c0 1.767-1.433 3.2-3.2 3.2v0zM28.8 4.8c0-0.884-0.716-1.6-1.6-1.6v0h-22.4c-0.884 0-1.6 0.716-1.6 1.6v0 22.4c0 0.884 0.716 1.6 1.6 1.6v0h22.4c0.884 0 1.6-0.716 1.6-1.6v0-22.4zM18.464 12.845c-1.626 0.007-3.026 0.968-3.67 2.353l-0.010 0.025h7.056l-1.232 3.229h-7.104l-2.112 5.531h-3.408l2.592-6.829c0.512-1.445 1.052-2.655 1.672-3.816l-0.072 0.148c0.628-1.159 1.518-2.104 2.593-2.78l0.031-0.018c1.263-0.692 2.767-1.099 4.365-1.099 0.13 0 0.26 0.003 0.389 0.008l-0.018-0.001h4.448l-1.232 3.248h-4.288z"></path>
</svg>
