<!-- Generated by IcoMoon.io -->
<svg version="1.1" xmlns="http://www.w3.org/2000/svg" width="32" height="32" viewBox="0 0 32 32">
<title>teacher</title>
<path d="M29.99 31.978h-28.008c-1.119-0.123-1.982-1.063-1.982-2.205 0-0.155 0.016-0.306 0.046-0.452l-0.002 0.014c0-4.967 9.432-9.989 9.432-9.989l4.429 8.387 0.798-2.034-1.248-2.507 2.497-2.501 2.497 2.507-1.248 2.505 0.674 1.994 4.555-8.337s9.5 5.342 9.5 10.003c0.025 0.125 0.039 0.268 0.039 0.415 0 1.139-0.861 2.077-1.968 2.198l-0.010 0.001zM22.739 12.882c-0.438 1.73-1.25 3.23-2.351 4.47l0.009-0.011c-1.102 1.127-2.542 1.919-4.157 2.21l-0.047 0.007-0.14 0.028-0.138-0.024c-1.615-0.25-3.021-1.005-4.085-2.094l-0.001-0.001c-1.149-1.248-2.009-2.781-2.46-4.48l-0.017-0.075c-0.508-0.294-0.896-0.745-1.103-1.287l-0.006-0.017c-0.249-0.655-0.393-1.411-0.393-2.202 0-0.114 0.003-0.226 0.009-0.338l-0.001 0.016v-0.399l0.329-0.221c0.094-0.067 0.203-0.133 0.315-0.192l0.016-0.008c-0.497-3.047-0.367-5.643 1.472-7.378 1.462-1.071 4.034-0.343 6.381-0.694 6.712-0.997 6.666 2.403 7.338 8.186l0.116 0.076 0.325 0.221v0.399c0.004 0.088 0.007 0.192 0.007 0.296 0 0.785-0.135 1.539-0.384 2.239l0.015-0.047c-0.198 0.556-0.566 1.012-1.041 1.314l-0.010 0.006zM21.92 9.833l-0.104-0.341-0.219 0.012-0.126-0.66c-0.094-0.512-0.245-3.191-0.439-3.617-0.095 0.014-0.205 0.022-0.316 0.022-0.577 0-1.104-0.215-1.505-0.569l0.002 0.002-0.301 0.931-0.479-0.064 0.064-0.566-0.506 0.81-0.451-0.090 0.443-1.206c-2.371 1.651-6.463 1.565-7.005 0.828-0.065 0.11-0.114 0.239-0.14 0.375l-0.001 0.007c-0.112 0.447-0.239 3.213-0.349 3.653l-0.032 0.162h-0.010q-0.032 0.138-0.066 0.239c-0.135-0.036-0.29-0.057-0.45-0.057-0.195 0-0.383 0.031-0.559 0.089l0.013-0.004c0.024 0.448 0.117 0.866 0.267 1.256l-0.009-0.028c0.087 0.28 0.291 0.501 0.552 0.61l0.006 0.002 0.399 0.126 0.112 0.399c0.382 1.649 1.149 3.082 2.201 4.252l-0.008-0.009c0.813 0.832 1.876 1.415 3.068 1.628l0.034 0.005c1.291-0.251 2.409-0.872 3.27-1.746l0.001-0.001c0.988-1.143 1.71-2.543 2.054-4.085l0.012-0.063 0.104-0.387 0.381-0.136c0.261-0.123 0.457-0.346 0.542-0.619l0.002-0.007c0.137-0.354 0.222-0.763 0.237-1.19v-0.006c-0.244 0.002-0.483 0.017-0.718 0.045l0.030-0.003z"></path>
</svg>
