<!-- Generated by IcoMoon.io -->
<svg version="1.1" xmlns="http://www.w3.org/2000/svg" width="32" height="32" viewBox="0 0 32 32">
<title>tips_one</title>
<path d="M16.004 9.76l2.561 2.881h-4.801zM0.96 12.641h30.087c0.003 0 0.006 0 0.009 0 0.526 0 0.952 0.426 0.952 0.952 0 0.003 0 0.006 0 0.009v0 7.682c0 0.003 0 0.006 0 0.009 0 0.525-0.426 0.951-0.951 0.951-0.003 0-0.007 0-0.010 0h-30.087c-0.003 0-0.006 0-0.009 0-0.525 0-0.951-0.426-0.951-0.951 0-0.003 0-0.007 0-0.010v0-7.682c0-0.003 0-0.006 0-0.009 0-0.526 0.426-0.952 0.952-0.952 0.003 0 0.006 0 0.009 0v0z"></path>
</svg>
