<!-- Generated by IcoMoon.io -->
<svg version="1.1" xmlns="http://www.w3.org/2000/svg" width="32" height="32" viewBox="0 0 32 32">
<title>up</title>
<path d="M16.287 0.138c-0.066-0.080-0.164-0.133-0.274-0.137h-0.001c-0.005 0-0.010 0-0.016 0-0.114 0-0.215 0.053-0.281 0.137l-0.001 0.001-8.755 10.972c-0.053 0.056-0.086 0.132-0.086 0.216s0.033 0.16 0.086 0.216v0c0.091 0.13-0.206-0.053-0.069-0.114h6.835v20.573h4.549v-20.573h6.835c0.137 0.059-0.183 0.229-0.069 0.107 0.043-0.057 0.069-0.129 0.069-0.207 0-0.002 0-0.004 0-0.006v0c0-0.005 0-0.011 0-0.016 0-0.080-0.026-0.153-0.070-0.213l0.001 0.001-8.755-10.972z"></path>
</svg>
