<!-- Generated by IcoMoon.io -->
<svg version="1.1" xmlns="http://www.w3.org/2000/svg" width="32" height="32" viewBox="0 0 32 32">
<title>update</title>
<path d="M16 32c-8.837 0-16-7.163-16-16s7.163-16 16-16c8.837 0 16 7.163 16 16v0c0 8.837-7.163 16-16 16v0zM11.254 16.487l0.306 0.313c0.038 0.040 0.092 0.065 0.152 0.065s0.114-0.025 0.152-0.065v0l3.5-3.594v6.974c0 0.001 0 0.002 0 0.004 0 0.119 0.096 0.216 0.214 0.217h0.431c0.119-0.001 0.216-0.098 0.216-0.218 0-0.001 0-0.002 0-0.003v0-6.975l3.5 3.594c0.038 0.040 0.092 0.065 0.152 0.065s0.113-0.025 0.152-0.065v0l0.304-0.312c0.039-0.040 0.063-0.096 0.063-0.156s-0.024-0.116-0.063-0.156v0l-4.386-4.505c-0.038-0.040-0.092-0.065-0.152-0.065s-0.114 0.025-0.152 0.065v0l-4.386 4.505c-0.040 0.041-0.064 0.096-0.064 0.157 0 0.060 0.024 0.115 0.062 0.155v0zM16 6.4c-5.294 0.005-9.583 4.298-9.583 9.592 0 1.348 0.278 2.631 0.78 3.795l-0.024-0.062-1.173 0.577 3.88 1.978-1.397-2.846c-0.481-1.016-0.762-2.208-0.762-3.465 0-4.562 3.698-8.26 8.26-8.26 1.355 0 2.633 0.326 3.761 0.904l-0.047-0.022 0.97-0.971c-1.342-0.768-2.949-1.22-4.662-1.22-0.001 0-0.003 0-0.004 0v0zM22.118 9.72l1.396 2.846c0.481 1.016 0.762 2.208 0.762 3.465 0 4.562-3.698 8.26-8.26 8.26-1.355 0-2.633-0.326-3.761-0.904l0.047 0.022-0.969 0.971c1.344 0.763 2.953 1.213 4.666 1.213 5.294 0 9.586-4.292 9.586-9.586 0-1.348-0.278-2.63-0.78-3.794l0.024 0.062 1.173-0.578z"></path>
</svg>
