<!-- Generated by IcoMoon.io -->
<svg version="1.1" xmlns="http://www.w3.org/2000/svg" width="32" height="32" viewBox="0 0 32 32">
<title>username</title>
<path d="M14.633 0.483c-0.582 0.066-1.106 0.271-1.552 0.581l0.011-0.007c-0.188-0.034-0.403-0.053-0.624-0.053-0.374 0-0.736 0.056-1.076 0.159l0.026-0.007c-1.424 0.551-2.433 1.873-2.518 3.441v0.010c-0.085 0.844-0.105 3.209-0.050 4.473 0.178 0.757-0.426 0.757-0.426 0.757-1.077-0.068-0.593 3.234-0.593 3.234-0.003 0.036-0.004 0.079-0.004 0.121 0 0.891 0.671 1.626 1.535 1.726l0.008 0.001c0.559 1.372 1.51 2.489 2.713 3.239l0.029 0.017s0.011 1.313 0.039 2.287c-0.162-0.080 0.554 2.488-4.394 3.199s-5.9 2.298-6.833 3.177-0.888 5.139-0.888 5.139l31.95 0.020s-0.236-4.275-1.169-5.153-1.955-2.458-6.902-3.177c-4.814-0.684-4.023-3.213-4.055-3.364 0-0.384 0.060-2.008 0.060-2.008 1.074-0.906 1.909-2.061 2.42-3.378l0.019-0.057c1.196-0.743 1.649-0.846 1.846-1.701 0 0 0.355-3.337-0.777-3.319 0 0-0.533 0.169-0.355-0.588 0.071-0.639 0.111-1.379 0.111-2.129 0-0.647-0.030-1.286-0.089-1.918l0.006 0.081c-0.085-0.842 0.043-3.25-1.754-3.586-0.443-0.063-0.954-0.099-1.473-0.099-0.18 0-0.359 0.004-0.537 0.013l0.025-0.001c-0.597-0.084-1.311-1.61-2.422-1.61z"></path>
</svg>
