<!-- Generated by IcoMoon.io -->
<svg version="1.1" xmlns="http://www.w3.org/2000/svg" width="32" height="32" viewBox="0 0 32 32">
<title>videoPlay</title>
<path d="M16 0c-8.837 0-16 7.163-16 16s7.163 16 16 16c8.837 0 16-7.163 16-16v0c0-8.837-7.163-16-16-16v0zM16 30.228c0 0 0 0 0 0-7.858 0-14.228-6.37-14.228-14.228s6.37-14.228 14.228-14.228c7.858 0 14.228 6.37 14.228 14.228 0 0 0 0 0 0v0c0 7.846-6.668 14.16-14.23 14.16v0.070zM13.076 23.355c-0.315-0.003-0.569-0.257-0.571-0.572v-13.063c0.001-0.315 0.257-0.571 0.572-0.571 0.122 0 0.235 0.038 0.328 0.103l-0.002-0.001 9.143 6.36c0.148 0.105 0.244 0.276 0.244 0.469 0 0.188-0.091 0.355-0.231 0.46l-0.002 0.001-9.144 6.7c-0.093 0.070-0.211 0.112-0.338 0.112v0z"></path>
</svg>
