<!-- Generated by IcoMoon.io -->
<svg version="1.1" xmlns="http://www.w3.org/2000/svg" width="32" height="32" viewBox="0 0 32 32">
<title>video</title>
<path d="M29.809 29.616h-27.616c-0.010 0-0.022 0-0.034 0-1.193 0-2.16-0.967-2.16-2.16 0-0.005 0-0.009 0-0.014v0.001-22.87c0-0.004 0-0.008 0-0.013 0-1.193 0.967-2.16 2.16-2.16 0.012 0 0.024 0 0.035 0h27.614c0.011 0 0.024 0 0.037 0 1.2 0 2.172 0.973 2.172 2.172 0 0 0 0 0 0v0 22.87c0 0 0 0 0 0 0 1.2-0.973 2.172-2.172 2.172-0.013 0-0.026 0-0.039 0h0.002zM25.614 26.414h3.202v-3.202h-3.202v3.202zM25.614 21.611h3.202v-4.803h-3.202v4.803zM25.614 15.208h3.202v-4.803h-3.202v4.803zM6.404 5.602h-3.202v3.202h3.202v-3.202zM6.404 10.405h-3.202s-0.080 4.643 0 4.803h3.202v-4.803zM6.404 16.808h-3.202c0.048-0.051-0.032 3.258-0.032 3.258-0.060 0.215-0.094 0.462-0.094 0.717 0 0.296 0.046 0.58 0.132 0.847l-0.005-0.020h3.202v-4.803zM6.404 23.212h-3.202c-0.064 0-0.032 0.010 0 0.016v3.186h3.202v-3.202zM24.014 5.602h-16.009v20.812h16.009v-20.812zM28.816 5.602h-3.202v3.202h3.202v-1.601c0.015-0.239 0.024-0.519 0.024-0.8s-0.009-0.561-0.026-0.838l0.002 0.038zM13.544 10.627l6.596 4.191c0.397 0.262 0.655 0.706 0.656 1.21v0c-0.016 0.487-0.271 0.911-0.651 1.16l-0.005 0.003-6.596 4.191c-0.232 0.147-0.515 0.234-0.818 0.234-0.269 0-0.523-0.069-0.743-0.19l0.008 0.004c-0.465-0.24-0.782-0.71-0.8-1.256v-8.384c0.005-0.552 0.327-1.027 0.792-1.255l0.008-0.004c0.202-0.094 0.439-0.149 0.689-0.149 0.319 0 0.618 0.090 0.871 0.246l-0.007-0.004zM3.202 23.228v-0.016c0.064 0.021 0.032 0.021 0 0.016z"></path>
</svg>
