<!-- Generated by IcoMoon.io -->
<svg version="1.1" xmlns="http://www.w3.org/2000/svg" width="32" height="32" viewBox="0 0 32 32">
<title>voice</title>
<path d="M27.443 26.84c-0.19 0.194-0.454 0.314-0.746 0.316v0c-0.318-0.003-0.602-0.141-0.799-0.36l-0.001-0.001c-0.18-0.211-0.289-0.488-0.289-0.789 0-0.33 0.13-0.629 0.342-0.849v0c2.391-2.444 3.867-5.792 3.867-9.485 0-3.825-1.583-7.281-4.13-9.747l-0.004-0.003c-0.229-0.219-0.371-0.527-0.371-0.867 0-0.293 0.105-0.561 0.279-0.769l-0.002 0.002c0.195-0.237 0.488-0.386 0.816-0.386 0.284 0 0.542 0.112 0.731 0.295v0c3.003 2.906 4.867 6.973 4.867 11.475 0 4.35-1.74 8.294-4.563 11.173l0.003-0.003zM22.723 22.763c-0.172 0.133-0.39 0.214-0.626 0.215v0c-0.373-0.001-0.701-0.192-0.891-0.483l-0.003-0.004c-0.129-0.188-0.206-0.421-0.206-0.672 0-0.382 0.178-0.722 0.457-0.942l0.003-0.002c1.564-1.214 2.561-3.094 2.561-5.207 0-2.183-1.064-4.118-2.703-5.314l-0.019-0.013c-0.297-0.221-0.488-0.571-0.488-0.966 0-0.235 0.067-0.454 0.184-0.639l-0.003 0.005c0.19-0.31 0.528-0.514 0.912-0.514 0.227 0 0.438 0.071 0.611 0.192l-0.003-0.002c2.241 1.655 3.678 4.287 3.678 7.254 0 2.873-1.347 5.432-3.445 7.078l-0.019 0.015zM16.735 30.696c-0.359-0.001-0.687-0.137-0.935-0.36l0.001 0.001-7.894-6.593h-5.707c-1.223-0.037-2.201-1.037-2.201-2.266 0-0.019 0-0.038 0.001-0.057v0.003l0.013-10.050c0-0.013 0-0.029 0-0.045 0-1.229 0.978-2.229 2.197-2.266h0.003l5.627-0.009 7.987-7.334c0.252-0.22 0.583-0.356 0.946-0.36h0.001c0.821 0.016 1.481 0.686 1.481 1.509 0 0.013 0 0.026 0 0.040v-0.002l-0.040 26.243c0 0.011 0 0.024 0 0.036 0 0.823-0.659 1.493-1.479 1.509h-0.002zM9.268 10.806c-0.374 0.347-0.875 0.56-1.426 0.564h-0.001l-5.627 0.008-0.040 10.050h5.734c0.001 0 0.003 0 0.004 0 0.514 0 0.984 0.188 1.346 0.498l-0.003-0.002 6.774 5.659 0.040-23.014z"></path>
</svg>
