<!-- Generated by IcoMoon.io -->
<svg version="1.1" xmlns="http://www.w3.org/2000/svg" width="32" height="32" viewBox="0 0 32 32">
<title>waitCheck</title>
<path d="M31.034 17.8h-0.119c-0.51-0.104-0.889-0.548-0.889-1.082 0-0.006 0-0.013 0-0.019v0.001-1.8c-0.006-0.041-0.010-0.089-0.010-0.137 0-0.51 0.395-0.927 0.896-0.963h0.003c0.072-0.021 0.154-0.033 0.239-0.033 0.471 0 0.857 0.367 0.887 0.83v2.303c-0.038 0.505-0.457 0.901-0.969 0.901-0.014 0-0.027 0-0.041-0.001h0.002zM22.323 7.099l2.43-2.1c-2.326-1.869-5.315-3.001-8.568-3.001-0.051 0-0.101 0-0.151 0.001h0.008c-7.693 0.052-13.91 6.3-13.91 14.001s6.217 13.949 13.905 14.001h0.005c0.007 0 0.016 0 0.024 0 0.552 0 1 0.448 1 1s-0.448 1-1 1c-0.009 0-0.017 0-0.026 0h0.001c-0.012 0-0.026 0-0.040 0-8.837 0-16-7.164-16-16s7.164-16 16-16c3.903 0 7.48 1.398 10.258 3.72l-0.025-0.021 2.311-2.1 1.422 6.6 0.356 1.5-2.193-0.7zM22.323 28.4q0.889-0.45 1.6-0.9c0.159-0.111 0.356-0.177 0.569-0.177 0.359 0 0.674 0.189 0.851 0.473l0.002 0.004c0.111 0.154 0.178 0.347 0.178 0.556 0 0.3-0.138 0.568-0.354 0.743l-0.002 0.001c-0.652 0.4-1.244 0.8-1.837 1.1-0.115 0.065-0.252 0.104-0.398 0.104-0.027 0-0.053-0.001-0.079-0.004h0.003c-0.009 0-0.020 0.001-0.031 0.001-0.392 0-0.727-0.247-0.856-0.595l-0.002-0.006c-0.107-0.141-0.171-0.319-0.171-0.512 0-0.353 0.215-0.656 0.521-0.786l0.006-0.002zM14.026 17.999v-11.001c0-0.556 0.451-1.007 1.007-1.007s1.007 0.451 1.007 1.007v0 9.001h9.008c0.552 0 1 0.448 1 1s-0.448 1-1 1v0h-11.022zM28.664 22.1c0.154-0.349 0.497-0.588 0.897-0.588 0.148 0 0.288 0.033 0.413 0.091l-0.006-0.003c0.328 0.175 0.547 0.514 0.547 0.905 0 0.223-0.072 0.43-0.193 0.598l0.002-0.003c-0.327 0.698-0.663 1.288-1.039 1.849l0.031-0.049c-0.188 0.224-0.46 0.373-0.766 0.4h-0.004c-0.201-0.045-0.38-0.114-0.544-0.205l0.010 0.005c-0.28-0.182-0.462-0.493-0.462-0.847 0-0.206 0.062-0.398 0.168-0.557l-0.002 0.004c0.296-0.5 0.652-1 0.948-1.6z"></path>
</svg>
