<!-- Generated by IcoMoon.io -->
<svg version="1.1" xmlns="http://www.w3.org/2000/svg" width="32" height="32" viewBox="0 0 32 32">
<title>woman</title>
<path fill="#461811" d="M23.665 14.681c0 4.231-3.428 2.032-7.659 2.032s-7.659 2.199-7.659-2.032v-6.93c0-4.231 3.428-7.659 7.659-7.659s7.659 3.428 7.659 7.659v6.93z"></path>
<path fill="#461811" d="M8.211 7.819c0 2.792 1.489 5.38 3.91 6.776s5.404 1.396 7.819 0c2.421-1.396 3.91-3.978 3.91-6.776 0-4.317-3.502-7.819-7.819-7.819s-7.819 3.502-7.819 7.819z"></path>
<path fill="#eac8ad" d="M18.656 18.832v5.738l-2.655 7.43-0.012-0.031-1.915-5.503-0.655-1.89v-5.75h5.231v0.006z"></path>
<path fill="#f2d7bc" d="M16.031 2.934c-2.538 0-6.559 1.445-6.559 8.208 0 3.904 1.519 5.75 2.075 6.454 0.506 0.649 3.125 2.755 4.484 2.755v-17.417z"></path>
<path fill="#f2d7bc" d="M8.211 12.76c-0.111-1.081 0.408-2.044 1.155-2.143s1.445 0.686 1.556 1.773c0.111 1.081-0.408 2.044-1.155 2.143s-1.445-0.698-1.556-1.773z"></path>
<path fill="#eac0a7" d="M16.012 2.934c2.538 0 6.559 1.445 6.559 8.208 0 3.904-1.519 5.75-2.075 6.454-0.506 0.649-3.125 2.755-4.484 2.755v-17.417z"></path>
<path fill="#eac0a7" d="M23.856 12.76c0.111-1.081-0.408-2.044-1.155-2.143s-1.445 0.686-1.556 1.773c-0.111 1.081 0.408 2.044 1.155 2.143s1.445-0.698 1.556-1.773z"></path>
<path fill="#eac8ad" d="M16 24.854v7.146l-0.012-0.031c-3.138 0-6.090-0.809-8.653-2.236 0.142-1.729 0.408-4.027 0.859-5.373 0.463-0.741 1.748-1.458 2.928-2.001 1.050-0.488 2.026-0.828 2.248-0.908l0.049-0.019v0.012c0 0.062 0.012 0.649 0.204 1.365 0.241 0.889 0.97 1.439 1.556 1.742 0.451 0.21 0.821 0.303 0.821 0.303zM24.665 29.721c-2.557 1.427-5.516 2.236-8.653 2.236l-0.012 0.031v-7.134s0.377-0.093 0.828-0.321c0.587-0.303 1.316-0.852 1.556-1.742 0.204-0.76 0.204-1.365 0.204-1.365l0.049 0.019s0.012 0 0.019 0.012c0.253 0.093 1.204 0.426 2.236 0.902 1.174 0.544 2.446 1.266 2.921 2.001 0.445 1.334 0.71 3.638 0.852 5.361z"></path>
<path fill="#fff" d="M16.031 17.973c0.994 0 1.791-0.605 1.791-1.359h-3.582c0 0.747 0.803 1.359 1.791 1.359z"></path>
<path fill="#461811" d="M15.666 0.994c-4.645 0-6.053 4.070-6.053 5.942-1.68 2.335 0.154 4.435 1.445 5.17v-1.155c0-1.507 1.439-2.915 3.601-2.681 1.933 0.21 3.156-0.883 4.188-2.742 1.272-2.501-0.315-4.534-3.181-4.534z"></path>
<path fill="#461811" d="M18.656 4.743s1.081 4.404 4.058 5.861c0.525-3.959 0.84-3.125 0-5.213s-4.058-3.632-4.058-3.632v2.983z"></path>
<path fill="#ebbbf3" d="M16 25.984v6.010l-0.012-0.031c-3.138 0-6.090-0.809-8.653-2.236 0.142-1.729 0.408-4.027 0.859-5.373 0.463-0.741 1.748-1.458 2.928-2.001 1.050-0.488 2.026-0.828 2.248-0.908l0.049-0.019 2.582 4.558z"></path>
<path fill="#e1a6ef" d="M24.665 29.721c-2.557 1.427-5.516 2.236-8.653 2.236l-0.012 0.031v-6.010l0.828-1.47 1.748-3.094 0.049 0.019s0.012 0 0.019 0.012c0.253 0.093 1.204 0.426 2.236 0.902 1.174 0.544 2.446 1.266 2.921 2.001 0.457 1.346 0.723 3.65 0.865 5.373z"></path>
<path fill="#fff" d="M16 25.984l-2.582-4.577-2.372 0.766 2.026 4.534 2.928-0.723zM16 25.984l2.582-4.577 2.378 0.76-2.026 4.534-2.934-0.716z"></path>
</svg>
