<!-- Generated by IcoMoon.io -->
<svg version="1.1" xmlns="http://www.w3.org/2000/svg" width="32" height="32" viewBox="0 0 32 32">
<title>zoomOut</title>
<path d="M13.091 0q2.66 0 5.085 1.040t4.176 2.79 2.79 4.176 1.040 5.085q0 2.284-0.744 4.375t-2.12 3.795l8.262 8.251q0.42 0.42 0.42 1.034 0 0.625-0.415 1.040t-1.040 0.415q-0.614 0-1.034-0.42l-8.251-8.262q-1.705 1.375-3.795 2.12t-4.375 0.744q-2.66 0-5.085-1.040t-4.176-2.79-2.79-4.176-1.040-5.085 1.040-5.085 2.79-4.176 4.176-2.79 5.085-1.040zM13.091 2.91q-2.068 0-3.955 0.807t-3.25 2.171-2.171 3.25-0.807 3.955 0.807 3.955 2.171 3.25 3.25 2.171 3.955 0.807 3.955-0.807 3.25-2.171 2.171-3.25 0.807-3.955-0.807-3.955-2.171-3.25-3.25-2.171-3.955-0.807zM8.728 11.637h8.728q0.602 0 1.029 0.427t0.427 1.029-0.427 1.029-1.029 0.427h-8.728q-0.602 0-1.029-0.427t-0.427-1.029 0.427-1.029 1.029-0.427z"></path>
</svg>
