<!-- Generated by IcoMoon.io -->
<svg version="1.1" xmlns="http://www.w3.org/2000/svg" width="32" height="32" viewBox="0 0 32 32">
<title>zoomIn</title>
<path d="M21.085 12.063h-5.314v-5.314c0-0.669-0.542-1.211-1.211-1.211s-1.211 0.542-1.211 1.211v0 5.314h-5.314c-0.632 0.045-1.128 0.569-1.128 1.209s0.496 1.164 1.124 1.208h5.318v5.32c0 0.669 0.542 1.211 1.211 1.211s1.211-0.542 1.211-1.211v0-5.32h5.314c0.025 0.002 0.054 0.003 0.083 0.003 0.669 0 1.211-0.542 1.211-1.211s-0.542-1.211-1.211-1.211c-0.029 0-0.058 0.001-0.087 0.003h0.004z"></path>
<path d="M30.262 29.268l-6.206-6.691c2.366-2.388 3.829-5.676 3.829-9.305 0-3.666-1.492-6.984-3.902-9.379l-0.001-0.001c-2.416-2.405-5.749-3.892-9.428-3.892s-7.012 1.487-9.429 3.893v-0.001c-2.411 2.397-3.903 5.715-3.903 9.383s1.492 6.986 3.903 9.382l0.001 0.001c2.416 2.401 5.747 3.885 9.423 3.885 2.604 0 5.034-0.744 7.089-2.032l-0.056 0.033 6.508 6.994c0.286 0.286 0.68 0.463 1.116 0.463 0.009 0 0.019 0 0.028 0h0.079c0.461-0.022 0.867-0.239 1.141-0.569l0.002-0.003c0.201-0.268 0.321-0.605 0.321-0.971 0-0.469-0.198-0.891-0.515-1.188l-0.001-0.001zM14.56 24.126c-5.986-0.013-10.834-4.869-10.834-10.857 0-5.996 4.861-10.857 10.857-10.857 3.005 0 5.725 1.221 7.691 3.194v0c1.953 1.963 3.16 4.669 3.16 7.657 0 5.996-4.861 10.857-10.857 10.857-0.006 0-0.012 0-0.018 0h0.001z"></path>
</svg>
